<svg xmlns="http://www.w3.org/2000/svg" width="40.734" height="67.73" viewBox="0 0 40.734 67.73"><defs><style>.a{fill:#fff;}</style></defs><g transform="translate(40.734) rotate(90)"><g transform="matrix(0.017, -1, 1, 0.017, 0, 39.564)"><path class="a" d="M1.831,65.257a6.4,6.4,0,0,1,0-8.963L24.253,33.665,1.831,10.811a6.4,6.4,0,0,1,0-8.962,6.254,6.254,0,0,1,8.88,0L37.794,29.184a6.541,6.541,0,0,1,0,8.962L10.711,65.257a6.567,6.567,0,0,1-4.44,1.793A6.571,6.571,0,0,1,1.831,65.257Z" transform="translate(0 0)"/></g></g></svg>