<svg xmlns="http://www.w3.org/2000/svg" width="93.152" height="82.99" viewBox="0 0 93.152 82.99"><defs><style>.a{fill:#2c44fb;}.b{fill:#00e4ea;}</style></defs><g transform="translate(-317 -3704.089)"><rect class="a" width="93.152" height="82.99" transform="translate(317 3704.089)"/><g transform="translate(344.129 3733.366)"><g transform="matrix(0.017, -1, 1, 0.017, 0, 22.876)"><path class="b" d="M1.059,37.732a3.7,3.7,0,0,1,0-5.182L14.023,19.466,1.059,6.251a3.7,3.7,0,0,1,0-5.182,3.616,3.616,0,0,1,5.134,0l15.66,15.805a3.782,3.782,0,0,1,0,5.182L6.193,37.732a3.8,3.8,0,0,1-2.567,1.036A3.8,3.8,0,0,1,1.059,37.732Z" transform="translate(0 0)"/></g></g></g></svg>