<svg xmlns="http://www.w3.org/2000/svg" xmlns:xlink="http://www.w3.org/1999/xlink" width="1993.429" height="193.062" viewBox="0 0 1993.429 193.062"><defs><style>.a{fill:none;}.b{clip-path:url(#a);}.c{mix-blend-mode:color-burn;}.c,.d{isolation:isolate;}.d{opacity:0.25;mix-blend-mode:multiply;}.e{fill:#6632fb;}</style><clipPath id="a"><rect class="a" width="1993.429" height="193.062"/></clipPath></defs><g class="b"><g transform="translate(-48.899 -1354.656)"><g class="c" transform="translate(48.899 1354.656)"><g class="d"><path class="e" d="M23.285,38.492a66.323,66.323,0,0,0,8.433,1.265c2.9.093,5.753.822,8.61.481a46.715,46.715,0,0,0,8.429-1.854c2.753-.862,6.167-.608,8.687-2.061,2.485-1.432,3.079-5.46,5.13-7.5s5.349-3.04,6.788-5.525c1.459-2.522.778-5.808,1.421-8.605s3.343-5.568,2.975-8.473c-.172-1.357-2.7-1.921-3.45-3.067-1.756-2.7-4.3-2.641-7.5-2.332-2.717.262-5.924-1.536-8.414-.483-2.455,1.039-4.583,3.119-6.905,4.545C45.183,6.293,43.034,8,40.774,9.421c-2.109,1.331-3.8,3.4-5.986,4.61s-4.337,2.576-6.588,3.655-5.333.256-7.642,1.2c-2.128.866-5.2,2.963-8.7,3.608-3.663.675-6.918,1.494-8.653,2.823-3.42,2.62-3.869,4.14-2.435,6.075a14.816,14.816,0,0,0,6.5,4.59,63.428,63.428,0,0,0,7.8,2.361c3.241.79,6.45-.131,8.218.152" transform="translate(182.765 84.947)"/><path class="e" d="M38.394.549A44.827,44.827,0,0,0,31.332.026c-2.409.133-4.822-.2-7.156.378A32.491,32.491,0,0,0,17.445,2.92C15.326,3.977,12.519,4.3,10.634,5.9c-2.023,1.719-2.171,5.314-3.725,7.679-1.48,2.254-4.1,3.962-5.011,6.6-.892,2.577-.009,5.53-.236,8.3C1.439,31.207-.444,34.083.1,36.817c.266,1.341,2.4,1.967,3.115,3.053,1.686,2.559,3.74,2.387,6.333,1.836,2.259-.481,5.128.468,7.118-.82,1.9-1.229,3.411-3.294,5.168-4.885,1.72-1.56,3.284-3.337,4.969-4.9,1.589-1.473,2.746-3.454,4.406-4.815,1.676-1.373,3.31-2.855,5.052-4.1,1.761-1.262,4.426-1.121,6.25-2.245,1.671-1.032,3.985-3.013,6.808-3.929,2.925-.949,5.483-1.971,6.776-3.422,2.321-2.605,2.74-4.228,1.762-5.959a10.506,10.506,0,0,0-5.443-4.262A42.858,42.858,0,0,0,45.549.443C42.686-.141,39.93.7,38.394.549" transform="translate(17.161 82.373)"/><path class="e" d="M78.011,13.788c-1.026-4.1-3.985-7.206-7.926-9.869A24.183,24.183,0,0,0,51.882.483C45.643,1.682,39.7,3,33.3,3.69c-3.987.427-8.189,1.417-12.278,1.612-4.415.212-9.438-.7-12.678,1.6-2.731,1.934-4,5.709-5.538,8.485A21.818,21.818,0,0,0,.17,28.808c.658,5.328,3.768,10.5,8.322,14.462,3.965,3.454,8.787,6.071,13.6,8.543,4.761,2.446,9.9,3.372,15.21,4.151,5.985.88,11.523,1.154,16.691-.862,5.376-2.1,9.711-5.915,13.614-10.08,4.008-4.277,7.951-8.775,9.76-14.069a30.511,30.511,0,0,0,.645-17.166" transform="translate(100.392 136.431)"/><path class="e" d="M.117,16.639C-.327,19.133.533,21.57,2.048,24a14.716,14.716,0,0,0,9.188,6.392c3.732.893,7.331,1.639,11.024,2.852,2.3.755,4.858,1.263,7.159,2.171,2.484.98,5.026,2.714,7.376,2.264,1.98-.379,3.609-2.12,5.138-3.257A12.987,12.987,0,0,0,46.7,27.748a14.137,14.137,0,0,0-1.031-9.97A40.711,40.711,0,0,0,40.28,9.735a28.968,28.968,0,0,0-7.355-6.047C29.845,1.722,26.859.2,23.516.023A23.04,23.04,0,0,0,13.534,2.15C10.273,3.492,7,4.976,4.7,7.421A18.141,18.141,0,0,0,.117,16.639" transform="translate(0 15.445)"/><path class="e" d="M40.4,3.01C37.259,1.732,34.121.295,30.738.054A22.314,22.314,0,0,0,15.893,4.382c-4.125,3.162-7.381,7.584-10.282,11.9A30.664,30.664,0,0,0,1.18,24.7C.253,28.017-.5,32.075.41,35.394c.892,3.265,4.548,5.575,6.595,8.264,2.071,2.721,3.032,6.684,5.677,8.85,2.629,2.152,6.636,2.6,9.429,4.527,2.376,1.641,3.956,4.115,5.746,6.383,2.006,2.539,4.191,4.879,5.936,7.606a20.137,20.137,0,0,0,14.038,9.435A20.87,20.87,0,0,0,64.4,75.7c4.533-4.082,7.4-10,9.071-15.878,1.126-3.967,2.589-8.257,2.875-12.5.285-4.23-2.547-8.269-3.445-12.353-.9-4.1-.354-8.85-2.8-12.377a45.475,45.475,0,0,0-8.129-9.083c-3.062-2.53-7.28-3.532-10.806-5.426A110.88,110.88,0,0,0,40.4,3.01" transform="translate(94.386)"/></g><g class="d" transform="translate(246.796)"><path class="e" d="M23.285,38.492a66.323,66.323,0,0,0,8.433,1.265c2.9.093,5.753.822,8.61.481a46.715,46.715,0,0,0,8.429-1.854c2.753-.862,6.167-.608,8.687-2.061,2.485-1.432,3.079-5.46,5.13-7.5s5.349-3.04,6.788-5.525c1.459-2.522.778-5.808,1.421-8.605s3.343-5.568,2.975-8.473c-.172-1.357-2.7-1.921-3.45-3.067-1.756-2.7-4.3-2.641-7.5-2.332-2.717.262-5.924-1.536-8.414-.483-2.455,1.039-4.583,3.119-6.905,4.545C45.183,6.293,43.034,8,40.774,9.421c-2.109,1.331-3.8,3.4-5.986,4.61s-4.337,2.576-6.588,3.655-5.333.256-7.642,1.2c-2.128.866-5.2,2.963-8.7,3.608-3.663.675-6.918,1.494-8.653,2.823-3.42,2.62-3.869,4.14-2.435,6.075a14.816,14.816,0,0,0,6.5,4.59,63.428,63.428,0,0,0,7.8,2.361c3.241.79,6.45-.131,8.218.152" transform="translate(182.765 84.947)"/><path class="e" d="M38.394.549A44.827,44.827,0,0,0,31.332.026c-2.409.133-4.822-.2-7.156.378A32.491,32.491,0,0,0,17.445,2.92C15.326,3.977,12.519,4.3,10.634,5.9c-2.023,1.719-2.171,5.314-3.725,7.679-1.48,2.254-4.1,3.962-5.011,6.6-.892,2.577-.009,5.53-.236,8.3C1.439,31.207-.444,34.083.1,36.817c.266,1.341,2.4,1.967,3.115,3.053,1.686,2.559,3.74,2.387,6.333,1.836,2.259-.481,5.128.468,7.118-.82,1.9-1.229,3.411-3.294,5.168-4.885,1.72-1.56,3.284-3.337,4.969-4.9,1.589-1.473,2.746-3.454,4.406-4.815,1.676-1.373,3.31-2.855,5.052-4.1,1.761-1.262,4.426-1.121,6.25-2.245,1.671-1.032,3.985-3.013,6.808-3.929,2.925-.949,5.483-1.971,6.776-3.422,2.321-2.605,2.74-4.228,1.762-5.959a10.506,10.506,0,0,0-5.443-4.262A42.858,42.858,0,0,0,45.549.443C42.686-.141,39.93.7,38.394.549" transform="translate(17.161 82.373)"/><path class="e" d="M78.011,13.788c-1.026-4.1-3.985-7.206-7.926-9.869A24.183,24.183,0,0,0,51.882.483C45.643,1.682,39.7,3,33.3,3.69c-3.987.427-8.189,1.417-12.278,1.612-4.415.212-9.438-.7-12.678,1.6-2.731,1.934-4,5.709-5.538,8.485A21.818,21.818,0,0,0,.17,28.808c.658,5.328,3.768,10.5,8.322,14.462,3.965,3.454,8.787,6.071,13.6,8.543,4.761,2.446,9.9,3.372,15.21,4.151,5.985.88,11.523,1.154,16.691-.862,5.376-2.1,9.711-5.915,13.614-10.08,4.008-4.277,7.951-8.775,9.76-14.069a30.511,30.511,0,0,0,.645-17.166" transform="translate(100.392 136.431)"/><path class="e" d="M.117,16.639C-.327,19.133.533,21.57,2.048,24a14.716,14.716,0,0,0,9.188,6.392c3.732.893,7.331,1.639,11.024,2.852,2.3.755,4.858,1.263,7.159,2.171,2.484.98,5.026,2.714,7.376,2.264,1.98-.379,3.609-2.12,5.138-3.257A12.987,12.987,0,0,0,46.7,27.748a14.137,14.137,0,0,0-1.031-9.97A40.711,40.711,0,0,0,40.28,9.735a28.968,28.968,0,0,0-7.355-6.047C29.845,1.722,26.859.2,23.516.023A23.04,23.04,0,0,0,13.534,2.15C10.273,3.492,7,4.976,4.7,7.421A18.141,18.141,0,0,0,.117,16.639" transform="translate(0 15.445)"/><path class="e" d="M40.4,3.01C37.259,1.732,34.121.295,30.738.054A22.314,22.314,0,0,0,15.893,4.382c-4.125,3.162-7.381,7.584-10.282,11.9A30.664,30.664,0,0,0,1.18,24.7C.253,28.017-.5,32.075.41,35.394c.892,3.265,4.548,5.575,6.595,8.264,2.071,2.721,3.032,6.684,5.677,8.85,2.629,2.152,6.636,2.6,9.429,4.527,2.376,1.641,3.956,4.115,5.746,6.383,2.006,2.539,4.191,4.879,5.936,7.606a20.137,20.137,0,0,0,14.038,9.435A20.87,20.87,0,0,0,64.4,75.7c4.533-4.082,7.4-10,9.071-15.878,1.126-3.967,2.589-8.257,2.875-12.5.285-4.23-2.547-8.269-3.445-12.353-.9-4.1-.354-8.85-2.8-12.377a45.475,45.475,0,0,0-8.129-9.083c-3.062-2.53-7.28-3.532-10.806-5.426A110.88,110.88,0,0,0,40.4,3.01" transform="translate(94.386)"/></g><g class="d" transform="translate(485.257)"><path class="e" d="M23.285,38.492a66.323,66.323,0,0,0,8.433,1.265c2.9.093,5.753.822,8.61.481a46.715,46.715,0,0,0,8.429-1.854c2.753-.862,6.167-.608,8.687-2.061,2.485-1.432,3.079-5.46,5.13-7.5s5.349-3.04,6.788-5.525c1.459-2.522.778-5.808,1.421-8.605s3.343-5.568,2.975-8.473c-.172-1.357-2.7-1.921-3.45-3.067-1.756-2.7-4.3-2.641-7.5-2.332-2.717.262-5.924-1.536-8.414-.483-2.455,1.039-4.583,3.119-6.905,4.545C45.183,6.293,43.034,8,40.774,9.421c-2.109,1.331-3.8,3.4-5.986,4.61s-4.337,2.576-6.588,3.655-5.333.256-7.642,1.2c-2.128.866-5.2,2.963-8.7,3.608-3.663.675-6.918,1.494-8.653,2.823-3.42,2.62-3.869,4.14-2.435,6.075a14.816,14.816,0,0,0,6.5,4.59,63.428,63.428,0,0,0,7.8,2.361c3.241.79,6.45-.131,8.218.152" transform="translate(88.38 84.947)"/><path class="e" d="M78.011,13.788c-1.026-4.1-3.985-7.206-7.926-9.869A24.183,24.183,0,0,0,51.882.483C45.643,1.682,39.7,3,33.3,3.69c-3.987.427-8.189,1.417-12.278,1.612-4.415.212-9.438-.7-12.678,1.6-2.731,1.934-4,5.709-5.538,8.485A21.818,21.818,0,0,0,.17,28.808c.658,5.328,3.768,10.5,8.322,14.462,3.965,3.454,8.787,6.071,13.6,8.543,4.761,2.446,9.9,3.372,15.21,4.151,5.985.88,11.523,1.154,16.691-.862,5.376-2.1,9.711-5.915,13.614-10.08,4.008-4.277,7.951-8.775,9.76-14.069a30.511,30.511,0,0,0,.645-17.166" transform="translate(6.006 136.431)"/><path class="e" d="M40.4,3.01C37.259,1.732,34.121.295,30.738.054A22.314,22.314,0,0,0,15.893,4.382c-4.125,3.162-7.381,7.584-10.282,11.9A30.664,30.664,0,0,0,1.18,24.7C.253,28.017-.5,32.075.41,35.394c.892,3.265,4.548,5.575,6.595,8.264,2.071,2.721,3.032,6.684,5.677,8.85,2.629,2.152,6.636,2.6,9.429,4.527,2.376,1.641,3.956,4.115,5.746,6.383,2.006,2.539,4.191,4.879,5.936,7.606a20.137,20.137,0,0,0,14.038,9.435A20.87,20.87,0,0,0,64.4,75.7c4.533-4.082,7.4-10,9.071-15.878,1.126-3.967,2.589-8.257,2.875-12.5.285-4.23-2.547-8.269-3.445-12.353-.9-4.1-.354-8.85-2.8-12.377a45.475,45.475,0,0,0-8.129-9.083c-3.062-2.53-7.28-3.532-10.806-5.426A110.88,110.88,0,0,0,40.4,3.01"/></g></g></g><g transform="translate(619.101 -1354.656)"><g class="c" transform="translate(48.899 1354.656)"><g class="d"><path class="e" d="M23.285,38.492a66.323,66.323,0,0,0,8.433,1.265c2.9.093,5.753.822,8.61.481a46.715,46.715,0,0,0,8.429-1.854c2.753-.862,6.167-.608,8.687-2.061,2.485-1.432,3.079-5.46,5.13-7.5s5.349-3.04,6.788-5.525c1.459-2.522.778-5.808,1.421-8.605s3.343-5.568,2.975-8.473c-.172-1.357-2.7-1.921-3.45-3.067-1.756-2.7-4.3-2.641-7.5-2.332-2.717.262-5.924-1.536-8.414-.483-2.455,1.039-4.583,3.119-6.905,4.545C45.183,6.293,43.034,8,40.774,9.421c-2.109,1.331-3.8,3.4-5.986,4.61s-4.337,2.576-6.588,3.655-5.333.256-7.642,1.2c-2.128.866-5.2,2.963-8.7,3.608-3.663.675-6.918,1.494-8.653,2.823-3.42,2.62-3.869,4.14-2.435,6.075a14.816,14.816,0,0,0,6.5,4.59,63.428,63.428,0,0,0,7.8,2.361c3.241.79,6.45-.131,8.218.152" transform="translate(182.765 84.947)"/><path class="e" d="M38.394.549A44.827,44.827,0,0,0,31.332.026c-2.409.133-4.822-.2-7.156.378A32.491,32.491,0,0,0,17.445,2.92C15.326,3.977,12.519,4.3,10.634,5.9c-2.023,1.719-2.171,5.314-3.725,7.679-1.48,2.254-4.1,3.962-5.011,6.6-.892,2.577-.009,5.53-.236,8.3C1.439,31.207-.444,34.083.1,36.817c.266,1.341,2.4,1.967,3.115,3.053,1.686,2.559,3.74,2.387,6.333,1.836,2.259-.481,5.128.468,7.118-.82,1.9-1.229,3.411-3.294,5.168-4.885,1.72-1.56,3.284-3.337,4.969-4.9,1.589-1.473,2.746-3.454,4.406-4.815,1.676-1.373,3.31-2.855,5.052-4.1,1.761-1.262,4.426-1.121,6.25-2.245,1.671-1.032,3.985-3.013,6.808-3.929,2.925-.949,5.483-1.971,6.776-3.422,2.321-2.605,2.74-4.228,1.762-5.959a10.506,10.506,0,0,0-5.443-4.262A42.858,42.858,0,0,0,45.549.443C42.686-.141,39.93.7,38.394.549" transform="translate(17.161 82.373)"/><path class="e" d="M78.011,13.788c-1.026-4.1-3.985-7.206-7.926-9.869A24.183,24.183,0,0,0,51.882.483C45.643,1.682,39.7,3,33.3,3.69c-3.987.427-8.189,1.417-12.278,1.612-4.415.212-9.438-.7-12.678,1.6-2.731,1.934-4,5.709-5.538,8.485A21.818,21.818,0,0,0,.17,28.808c.658,5.328,3.768,10.5,8.322,14.462,3.965,3.454,8.787,6.071,13.6,8.543,4.761,2.446,9.9,3.372,15.21,4.151,5.985.88,11.523,1.154,16.691-.862,5.376-2.1,9.711-5.915,13.614-10.08,4.008-4.277,7.951-8.775,9.76-14.069a30.511,30.511,0,0,0,.645-17.166" transform="translate(100.392 136.431)"/><path class="e" d="M.117,16.639C-.327,19.133.533,21.57,2.048,24a14.716,14.716,0,0,0,9.188,6.392c3.732.893,7.331,1.639,11.024,2.852,2.3.755,4.858,1.263,7.159,2.171,2.484.98,5.026,2.714,7.376,2.264,1.98-.379,3.609-2.12,5.138-3.257A12.987,12.987,0,0,0,46.7,27.748a14.137,14.137,0,0,0-1.031-9.97A40.711,40.711,0,0,0,40.28,9.735a28.968,28.968,0,0,0-7.355-6.047C29.845,1.722,26.859.2,23.516.023A23.04,23.04,0,0,0,13.534,2.15C10.273,3.492,7,4.976,4.7,7.421A18.141,18.141,0,0,0,.117,16.639" transform="translate(0 15.445)"/><path class="e" d="M40.4,3.01C37.259,1.732,34.121.295,30.738.054A22.314,22.314,0,0,0,15.893,4.382c-4.125,3.162-7.381,7.584-10.282,11.9A30.664,30.664,0,0,0,1.18,24.7C.253,28.017-.5,32.075.41,35.394c.892,3.265,4.548,5.575,6.595,8.264,2.071,2.721,3.032,6.684,5.677,8.85,2.629,2.152,6.636,2.6,9.429,4.527,2.376,1.641,3.956,4.115,5.746,6.383,2.006,2.539,4.191,4.879,5.936,7.606a20.137,20.137,0,0,0,14.038,9.435A20.87,20.87,0,0,0,64.4,75.7c4.533-4.082,7.4-10,9.071-15.878,1.126-3.967,2.589-8.257,2.875-12.5.285-4.23-2.547-8.269-3.445-12.353-.9-4.1-.354-8.85-2.8-12.377a45.475,45.475,0,0,0-8.129-9.083c-3.062-2.53-7.28-3.532-10.806-5.426A110.88,110.88,0,0,0,40.4,3.01" transform="translate(94.386)"/></g><g class="d" transform="translate(246.796)"><path class="e" d="M23.285,38.492a66.323,66.323,0,0,0,8.433,1.265c2.9.093,5.753.822,8.61.481a46.715,46.715,0,0,0,8.429-1.854c2.753-.862,6.167-.608,8.687-2.061,2.485-1.432,3.079-5.46,5.13-7.5s5.349-3.04,6.788-5.525c1.459-2.522.778-5.808,1.421-8.605s3.343-5.568,2.975-8.473c-.172-1.357-2.7-1.921-3.45-3.067-1.756-2.7-4.3-2.641-7.5-2.332-2.717.262-5.924-1.536-8.414-.483-2.455,1.039-4.583,3.119-6.905,4.545C45.183,6.293,43.034,8,40.774,9.421c-2.109,1.331-3.8,3.4-5.986,4.61s-4.337,2.576-6.588,3.655-5.333.256-7.642,1.2c-2.128.866-5.2,2.963-8.7,3.608-3.663.675-6.918,1.494-8.653,2.823-3.42,2.62-3.869,4.14-2.435,6.075a14.816,14.816,0,0,0,6.5,4.59,63.428,63.428,0,0,0,7.8,2.361c3.241.79,6.45-.131,8.218.152" transform="translate(182.765 84.947)"/><path class="e" d="M38.394.549A44.827,44.827,0,0,0,31.332.026c-2.409.133-4.822-.2-7.156.378A32.491,32.491,0,0,0,17.445,2.92C15.326,3.977,12.519,4.3,10.634,5.9c-2.023,1.719-2.171,5.314-3.725,7.679-1.48,2.254-4.1,3.962-5.011,6.6-.892,2.577-.009,5.53-.236,8.3C1.439,31.207-.444,34.083.1,36.817c.266,1.341,2.4,1.967,3.115,3.053,1.686,2.559,3.74,2.387,6.333,1.836,2.259-.481,5.128.468,7.118-.82,1.9-1.229,3.411-3.294,5.168-4.885,1.72-1.56,3.284-3.337,4.969-4.9,1.589-1.473,2.746-3.454,4.406-4.815,1.676-1.373,3.31-2.855,5.052-4.1,1.761-1.262,4.426-1.121,6.25-2.245,1.671-1.032,3.985-3.013,6.808-3.929,2.925-.949,5.483-1.971,6.776-3.422,2.321-2.605,2.74-4.228,1.762-5.959a10.506,10.506,0,0,0-5.443-4.262A42.858,42.858,0,0,0,45.549.443C42.686-.141,39.93.7,38.394.549" transform="translate(17.161 82.373)"/><path class="e" d="M78.011,13.788c-1.026-4.1-3.985-7.206-7.926-9.869A24.183,24.183,0,0,0,51.882.483C45.643,1.682,39.7,3,33.3,3.69c-3.987.427-8.189,1.417-12.278,1.612-4.415.212-9.438-.7-12.678,1.6-2.731,1.934-4,5.709-5.538,8.485A21.818,21.818,0,0,0,.17,28.808c.658,5.328,3.768,10.5,8.322,14.462,3.965,3.454,8.787,6.071,13.6,8.543,4.761,2.446,9.9,3.372,15.21,4.151,5.985.88,11.523,1.154,16.691-.862,5.376-2.1,9.711-5.915,13.614-10.08,4.008-4.277,7.951-8.775,9.76-14.069a30.511,30.511,0,0,0,.645-17.166" transform="translate(100.392 136.431)"/><path class="e" d="M.117,16.639C-.327,19.133.533,21.57,2.048,24a14.716,14.716,0,0,0,9.188,6.392c3.732.893,7.331,1.639,11.024,2.852,2.3.755,4.858,1.263,7.159,2.171,2.484.98,5.026,2.714,7.376,2.264,1.98-.379,3.609-2.12,5.138-3.257A12.987,12.987,0,0,0,46.7,27.748a14.137,14.137,0,0,0-1.031-9.97A40.711,40.711,0,0,0,40.28,9.735a28.968,28.968,0,0,0-7.355-6.047C29.845,1.722,26.859.2,23.516.023A23.04,23.04,0,0,0,13.534,2.15C10.273,3.492,7,4.976,4.7,7.421A18.141,18.141,0,0,0,.117,16.639" transform="translate(0 15.445)"/><path class="e" d="M40.4,3.01C37.259,1.732,34.121.295,30.738.054A22.314,22.314,0,0,0,15.893,4.382c-4.125,3.162-7.381,7.584-10.282,11.9A30.664,30.664,0,0,0,1.18,24.7C.253,28.017-.5,32.075.41,35.394c.892,3.265,4.548,5.575,6.595,8.264,2.071,2.721,3.032,6.684,5.677,8.85,2.629,2.152,6.636,2.6,9.429,4.527,2.376,1.641,3.956,4.115,5.746,6.383,2.006,2.539,4.191,4.879,5.936,7.606a20.137,20.137,0,0,0,14.038,9.435A20.87,20.87,0,0,0,64.4,75.7c4.533-4.082,7.4-10,9.071-15.878,1.126-3.967,2.589-8.257,2.875-12.5.285-4.23-2.547-8.269-3.445-12.353-.9-4.1-.354-8.85-2.8-12.377a45.475,45.475,0,0,0-8.129-9.083c-3.062-2.53-7.28-3.532-10.806-5.426A110.88,110.88,0,0,0,40.4,3.01" transform="translate(94.386)"/></g><g class="d" transform="translate(485.257)"><path class="e" d="M23.285,38.492a66.323,66.323,0,0,0,8.433,1.265c2.9.093,5.753.822,8.61.481a46.715,46.715,0,0,0,8.429-1.854c2.753-.862,6.167-.608,8.687-2.061,2.485-1.432,3.079-5.46,5.13-7.5s5.349-3.04,6.788-5.525c1.459-2.522.778-5.808,1.421-8.605s3.343-5.568,2.975-8.473c-.172-1.357-2.7-1.921-3.45-3.067-1.756-2.7-4.3-2.641-7.5-2.332-2.717.262-5.924-1.536-8.414-.483-2.455,1.039-4.583,3.119-6.905,4.545C45.183,6.293,43.034,8,40.774,9.421c-2.109,1.331-3.8,3.4-5.986,4.61s-4.337,2.576-6.588,3.655-5.333.256-7.642,1.2c-2.128.866-5.2,2.963-8.7,3.608-3.663.675-6.918,1.494-8.653,2.823-3.42,2.62-3.869,4.14-2.435,6.075a14.816,14.816,0,0,0,6.5,4.59,63.428,63.428,0,0,0,7.8,2.361c3.241.79,6.45-.131,8.218.152" transform="translate(88.38 84.947)"/><path class="e" d="M78.011,13.788c-1.026-4.1-3.985-7.206-7.926-9.869A24.183,24.183,0,0,0,51.882.483C45.643,1.682,39.7,3,33.3,3.69c-3.987.427-8.189,1.417-12.278,1.612-4.415.212-9.438-.7-12.678,1.6-2.731,1.934-4,5.709-5.538,8.485A21.818,21.818,0,0,0,.17,28.808c.658,5.328,3.768,10.5,8.322,14.462,3.965,3.454,8.787,6.071,13.6,8.543,4.761,2.446,9.9,3.372,15.21,4.151,5.985.88,11.523,1.154,16.691-.862,5.376-2.1,9.711-5.915,13.614-10.08,4.008-4.277,7.951-8.775,9.76-14.069a30.511,30.511,0,0,0,.645-17.166" transform="translate(6.006 136.431)"/><path class="e" d="M40.4,3.01C37.259,1.732,34.121.295,30.738.054A22.314,22.314,0,0,0,15.893,4.382c-4.125,3.162-7.381,7.584-10.282,11.9A30.664,30.664,0,0,0,1.18,24.7C.253,28.017-.5,32.075.41,35.394c.892,3.265,4.548,5.575,6.595,8.264,2.071,2.721,3.032,6.684,5.677,8.85,2.629,2.152,6.636,2.6,9.429,4.527,2.376,1.641,3.956,4.115,5.746,6.383,2.006,2.539,4.191,4.879,5.936,7.606a20.137,20.137,0,0,0,14.038,9.435A20.87,20.87,0,0,0,64.4,75.7c4.533-4.082,7.4-10,9.071-15.878,1.126-3.967,2.589-8.257,2.875-12.5.285-4.23-2.547-8.269-3.445-12.353-.9-4.1-.354-8.85-2.8-12.377a45.475,45.475,0,0,0-8.129-9.083c-3.062-2.53-7.28-3.532-10.806-5.426A110.88,110.88,0,0,0,40.4,3.01"/></g></g></g><g transform="translate(1287.101 -1354.656)"><g class="c" transform="translate(48.899 1354.656)"><g class="d"><path class="e" d="M23.285,38.492a66.323,66.323,0,0,0,8.433,1.265c2.9.093,5.753.822,8.61.481a46.715,46.715,0,0,0,8.429-1.854c2.753-.862,6.167-.608,8.687-2.061,2.485-1.432,3.079-5.46,5.13-7.5s5.349-3.04,6.788-5.525c1.459-2.522.778-5.808,1.421-8.605s3.343-5.568,2.975-8.473c-.172-1.357-2.7-1.921-3.45-3.067-1.756-2.7-4.3-2.641-7.5-2.332-2.717.262-5.924-1.536-8.414-.483-2.455,1.039-4.583,3.119-6.905,4.545C45.183,6.293,43.034,8,40.774,9.421c-2.109,1.331-3.8,3.4-5.986,4.61s-4.337,2.576-6.588,3.655-5.333.256-7.642,1.2c-2.128.866-5.2,2.963-8.7,3.608-3.663.675-6.918,1.494-8.653,2.823-3.42,2.62-3.869,4.14-2.435,6.075a14.816,14.816,0,0,0,6.5,4.59,63.428,63.428,0,0,0,7.8,2.361c3.241.79,6.45-.131,8.218.152" transform="translate(182.765 84.947)"/><path class="e" d="M38.394.549A44.827,44.827,0,0,0,31.332.026c-2.409.133-4.822-.2-7.156.378A32.491,32.491,0,0,0,17.445,2.92C15.326,3.977,12.519,4.3,10.634,5.9c-2.023,1.719-2.171,5.314-3.725,7.679-1.48,2.254-4.1,3.962-5.011,6.6-.892,2.577-.009,5.53-.236,8.3C1.439,31.207-.444,34.083.1,36.817c.266,1.341,2.4,1.967,3.115,3.053,1.686,2.559,3.74,2.387,6.333,1.836,2.259-.481,5.128.468,7.118-.82,1.9-1.229,3.411-3.294,5.168-4.885,1.72-1.56,3.284-3.337,4.969-4.9,1.589-1.473,2.746-3.454,4.406-4.815,1.676-1.373,3.31-2.855,5.052-4.1,1.761-1.262,4.426-1.121,6.25-2.245,1.671-1.032,3.985-3.013,6.808-3.929,2.925-.949,5.483-1.971,6.776-3.422,2.321-2.605,2.74-4.228,1.762-5.959a10.506,10.506,0,0,0-5.443-4.262A42.858,42.858,0,0,0,45.549.443C42.686-.141,39.93.7,38.394.549" transform="translate(17.161 82.373)"/><path class="e" d="M78.011,13.788c-1.026-4.1-3.985-7.206-7.926-9.869A24.183,24.183,0,0,0,51.882.483C45.643,1.682,39.7,3,33.3,3.69c-3.987.427-8.189,1.417-12.278,1.612-4.415.212-9.438-.7-12.678,1.6-2.731,1.934-4,5.709-5.538,8.485A21.818,21.818,0,0,0,.17,28.808c.658,5.328,3.768,10.5,8.322,14.462,3.965,3.454,8.787,6.071,13.6,8.543,4.761,2.446,9.9,3.372,15.21,4.151,5.985.88,11.523,1.154,16.691-.862,5.376-2.1,9.711-5.915,13.614-10.08,4.008-4.277,7.951-8.775,9.76-14.069a30.511,30.511,0,0,0,.645-17.166" transform="translate(100.392 136.431)"/><path class="e" d="M.117,16.639C-.327,19.133.533,21.57,2.048,24a14.716,14.716,0,0,0,9.188,6.392c3.732.893,7.331,1.639,11.024,2.852,2.3.755,4.858,1.263,7.159,2.171,2.484.98,5.026,2.714,7.376,2.264,1.98-.379,3.609-2.12,5.138-3.257A12.987,12.987,0,0,0,46.7,27.748a14.137,14.137,0,0,0-1.031-9.97A40.711,40.711,0,0,0,40.28,9.735a28.968,28.968,0,0,0-7.355-6.047C29.845,1.722,26.859.2,23.516.023A23.04,23.04,0,0,0,13.534,2.15C10.273,3.492,7,4.976,4.7,7.421A18.141,18.141,0,0,0,.117,16.639" transform="translate(0 15.445)"/><path class="e" d="M40.4,3.01C37.259,1.732,34.121.295,30.738.054A22.314,22.314,0,0,0,15.893,4.382c-4.125,3.162-7.381,7.584-10.282,11.9A30.664,30.664,0,0,0,1.18,24.7C.253,28.017-.5,32.075.41,35.394c.892,3.265,4.548,5.575,6.595,8.264,2.071,2.721,3.032,6.684,5.677,8.85,2.629,2.152,6.636,2.6,9.429,4.527,2.376,1.641,3.956,4.115,5.746,6.383,2.006,2.539,4.191,4.879,5.936,7.606a20.137,20.137,0,0,0,14.038,9.435A20.87,20.87,0,0,0,64.4,75.7c4.533-4.082,7.4-10,9.071-15.878,1.126-3.967,2.589-8.257,2.875-12.5.285-4.23-2.547-8.269-3.445-12.353-.9-4.1-.354-8.85-2.8-12.377a45.475,45.475,0,0,0-8.129-9.083c-3.062-2.53-7.28-3.532-10.806-5.426A110.88,110.88,0,0,0,40.4,3.01" transform="translate(94.386)"/></g><g class="d" transform="translate(246.796)"><path class="e" d="M23.285,38.492a66.323,66.323,0,0,0,8.433,1.265c2.9.093,5.753.822,8.61.481a46.715,46.715,0,0,0,8.429-1.854c2.753-.862,6.167-.608,8.687-2.061,2.485-1.432,3.079-5.46,5.13-7.5s5.349-3.04,6.788-5.525c1.459-2.522.778-5.808,1.421-8.605s3.343-5.568,2.975-8.473c-.172-1.357-2.7-1.921-3.45-3.067-1.756-2.7-4.3-2.641-7.5-2.332-2.717.262-5.924-1.536-8.414-.483-2.455,1.039-4.583,3.119-6.905,4.545C45.183,6.293,43.034,8,40.774,9.421c-2.109,1.331-3.8,3.4-5.986,4.61s-4.337,2.576-6.588,3.655-5.333.256-7.642,1.2c-2.128.866-5.2,2.963-8.7,3.608-3.663.675-6.918,1.494-8.653,2.823-3.42,2.62-3.869,4.14-2.435,6.075a14.816,14.816,0,0,0,6.5,4.59,63.428,63.428,0,0,0,7.8,2.361c3.241.79,6.45-.131,8.218.152" transform="translate(182.765 84.947)"/><path class="e" d="M38.394.549A44.827,44.827,0,0,0,31.332.026c-2.409.133-4.822-.2-7.156.378A32.491,32.491,0,0,0,17.445,2.92C15.326,3.977,12.519,4.3,10.634,5.9c-2.023,1.719-2.171,5.314-3.725,7.679-1.48,2.254-4.1,3.962-5.011,6.6-.892,2.577-.009,5.53-.236,8.3C1.439,31.207-.444,34.083.1,36.817c.266,1.341,2.4,1.967,3.115,3.053,1.686,2.559,3.74,2.387,6.333,1.836,2.259-.481,5.128.468,7.118-.82,1.9-1.229,3.411-3.294,5.168-4.885,1.72-1.56,3.284-3.337,4.969-4.9,1.589-1.473,2.746-3.454,4.406-4.815,1.676-1.373,3.31-2.855,5.052-4.1,1.761-1.262,4.426-1.121,6.25-2.245,1.671-1.032,3.985-3.013,6.808-3.929,2.925-.949,5.483-1.971,6.776-3.422,2.321-2.605,2.74-4.228,1.762-5.959a10.506,10.506,0,0,0-5.443-4.262A42.858,42.858,0,0,0,45.549.443C42.686-.141,39.93.7,38.394.549" transform="translate(17.161 82.373)"/><path class="e" d="M78.011,13.788c-1.026-4.1-3.985-7.206-7.926-9.869A24.183,24.183,0,0,0,51.882.483C45.643,1.682,39.7,3,33.3,3.69c-3.987.427-8.189,1.417-12.278,1.612-4.415.212-9.438-.7-12.678,1.6-2.731,1.934-4,5.709-5.538,8.485A21.818,21.818,0,0,0,.17,28.808c.658,5.328,3.768,10.5,8.322,14.462,3.965,3.454,8.787,6.071,13.6,8.543,4.761,2.446,9.9,3.372,15.21,4.151,5.985.88,11.523,1.154,16.691-.862,5.376-2.1,9.711-5.915,13.614-10.08,4.008-4.277,7.951-8.775,9.76-14.069a30.511,30.511,0,0,0,.645-17.166" transform="translate(100.392 136.431)"/><path class="e" d="M.117,16.639C-.327,19.133.533,21.57,2.048,24a14.716,14.716,0,0,0,9.188,6.392c3.732.893,7.331,1.639,11.024,2.852,2.3.755,4.858,1.263,7.159,2.171,2.484.98,5.026,2.714,7.376,2.264,1.98-.379,3.609-2.12,5.138-3.257A12.987,12.987,0,0,0,46.7,27.748a14.137,14.137,0,0,0-1.031-9.97A40.711,40.711,0,0,0,40.28,9.735a28.968,28.968,0,0,0-7.355-6.047C29.845,1.722,26.859.2,23.516.023A23.04,23.04,0,0,0,13.534,2.15C10.273,3.492,7,4.976,4.7,7.421A18.141,18.141,0,0,0,.117,16.639" transform="translate(0 15.445)"/><path class="e" d="M40.4,3.01C37.259,1.732,34.121.295,30.738.054A22.314,22.314,0,0,0,15.893,4.382c-4.125,3.162-7.381,7.584-10.282,11.9A30.664,30.664,0,0,0,1.18,24.7C.253,28.017-.5,32.075.41,35.394c.892,3.265,4.548,5.575,6.595,8.264,2.071,2.721,3.032,6.684,5.677,8.85,2.629,2.152,6.636,2.6,9.429,4.527,2.376,1.641,3.956,4.115,5.746,6.383,2.006,2.539,4.191,4.879,5.936,7.606a20.137,20.137,0,0,0,14.038,9.435A20.87,20.87,0,0,0,64.4,75.7c4.533-4.082,7.4-10,9.071-15.878,1.126-3.967,2.589-8.257,2.875-12.5.285-4.23-2.547-8.269-3.445-12.353-.9-4.1-.354-8.85-2.8-12.377a45.475,45.475,0,0,0-8.129-9.083c-3.062-2.53-7.28-3.532-10.806-5.426A110.88,110.88,0,0,0,40.4,3.01" transform="translate(94.386)"/></g><g class="d" transform="translate(485.257)"><path class="e" d="M23.285,38.492a66.323,66.323,0,0,0,8.433,1.265c2.9.093,5.753.822,8.61.481a46.715,46.715,0,0,0,8.429-1.854c2.753-.862,6.167-.608,8.687-2.061,2.485-1.432,3.079-5.46,5.13-7.5s5.349-3.04,6.788-5.525c1.459-2.522.778-5.808,1.421-8.605s3.343-5.568,2.975-8.473c-.172-1.357-2.7-1.921-3.45-3.067-1.756-2.7-4.3-2.641-7.5-2.332-2.717.262-5.924-1.536-8.414-.483-2.455,1.039-4.583,3.119-6.905,4.545C45.183,6.293,43.034,8,40.774,9.421c-2.109,1.331-3.8,3.4-5.986,4.61s-4.337,2.576-6.588,3.655-5.333.256-7.642,1.2c-2.128.866-5.2,2.963-8.7,3.608-3.663.675-6.918,1.494-8.653,2.823-3.42,2.62-3.869,4.14-2.435,6.075a14.816,14.816,0,0,0,6.5,4.59,63.428,63.428,0,0,0,7.8,2.361c3.241.79,6.45-.131,8.218.152" transform="translate(88.38 84.947)"/><path class="e" d="M78.011,13.788c-1.026-4.1-3.985-7.206-7.926-9.869A24.183,24.183,0,0,0,51.882.483C45.643,1.682,39.7,3,33.3,3.69c-3.987.427-8.189,1.417-12.278,1.612-4.415.212-9.438-.7-12.678,1.6-2.731,1.934-4,5.709-5.538,8.485A21.818,21.818,0,0,0,.17,28.808c.658,5.328,3.768,10.5,8.322,14.462,3.965,3.454,8.787,6.071,13.6,8.543,4.761,2.446,9.9,3.372,15.21,4.151,5.985.88,11.523,1.154,16.691-.862,5.376-2.1,9.711-5.915,13.614-10.08,4.008-4.277,7.951-8.775,9.76-14.069a30.511,30.511,0,0,0,.645-17.166" transform="translate(6.006 136.431)"/><path class="e" d="M40.4,3.01C37.259,1.732,34.121.295,30.738.054A22.314,22.314,0,0,0,15.893,4.382c-4.125,3.162-7.381,7.584-10.282,11.9A30.664,30.664,0,0,0,1.18,24.7C.253,28.017-.5,32.075.41,35.394c.892,3.265,4.548,5.575,6.595,8.264,2.071,2.721,3.032,6.684,5.677,8.85,2.629,2.152,6.636,2.6,9.429,4.527,2.376,1.641,3.956,4.115,5.746,6.383,2.006,2.539,4.191,4.879,5.936,7.606a20.137,20.137,0,0,0,14.038,9.435A20.87,20.87,0,0,0,64.4,75.7c4.533-4.082,7.4-10,9.071-15.878,1.126-3.967,2.589-8.257,2.875-12.5.285-4.23-2.547-8.269-3.445-12.353-.9-4.1-.354-8.85-2.8-12.377a45.475,45.475,0,0,0-8.129-9.083c-3.062-2.53-7.28-3.532-10.806-5.426A110.88,110.88,0,0,0,40.4,3.01"/></g></g></g></g></svg>