<svg xmlns="http://www.w3.org/2000/svg" width="1808.394" height="533.789" viewBox="0 0 1808.394 533.789"><defs><style>.a{fill:#fd7f23;}</style></defs><g transform="translate(-108.606 -3820.362)"><g transform="translate(915.181 4305.933)"><path class="a" d="M4.05,2.025A2.025,2.025,0,1,1,2.025,0,2.025,2.025,0,0,1,4.05,2.025" transform="translate(0 0)"/><path class="a" d="M4.05,2.025A2.025,2.025,0,1,1,2.025,0,2.025,2.025,0,0,1,4.05,2.025" transform="translate(12.579 0)"/><path class="a" d="M4.049,2.025A2.025,2.025,0,1,1,2.025,0,2.025,2.025,0,0,1,4.049,2.025" transform="translate(25.158 0)"/><path class="a" d="M4.049,2.025A2.025,2.025,0,1,1,2.025,0,2.025,2.025,0,0,1,4.049,2.025" transform="translate(37.737 0)"/><path class="a" d="M4.049,2.025A2.025,2.025,0,1,1,2.025,0,2.025,2.025,0,0,1,4.049,2.025" transform="translate(50.316 0)"/><path class="a" d="M4.05,2.025A2.025,2.025,0,1,1,2.025,0,2.025,2.025,0,0,1,4.05,2.025" transform="translate(0 11.042)"/><path class="a" d="M4.05,2.025A2.025,2.025,0,1,1,2.025,0,2.025,2.025,0,0,1,4.05,2.025" transform="translate(12.579 11.042)"/><path class="a" d="M4.049,2.025A2.025,2.025,0,1,1,2.025,0,2.025,2.025,0,0,1,4.049,2.025" transform="translate(25.158 11.042)"/><path class="a" d="M4.049,2.025A2.025,2.025,0,1,1,2.025,0,2.025,2.025,0,0,1,4.049,2.025" transform="translate(37.737 11.042)"/><path class="a" d="M4.049,2.025A2.025,2.025,0,1,1,2.025,0,2.025,2.025,0,0,1,4.049,2.025" transform="translate(50.316 11.042)"/><path class="a" d="M4.05,2.025A2.025,2.025,0,1,1,2.025,0,2.025,2.025,0,0,1,4.05,2.025" transform="translate(0 22.085)"/><path class="a" d="M4.05,2.025A2.025,2.025,0,1,1,2.025,0,2.025,2.025,0,0,1,4.05,2.025" transform="translate(12.579 22.085)"/><path class="a" d="M4.049,2.025A2.025,2.025,0,1,1,2.025,0,2.025,2.025,0,0,1,4.049,2.025" transform="translate(25.158 22.085)"/><path class="a" d="M4.049,2.025A2.025,2.025,0,1,1,2.025,0,2.025,2.025,0,0,1,4.049,2.025" transform="translate(37.737 22.085)"/><path class="a" d="M4.049,2.025A2.025,2.025,0,1,1,2.025,0,2.025,2.025,0,0,1,4.049,2.025" transform="translate(50.316 22.085)"/><path class="a" d="M4.05,2.025A2.025,2.025,0,1,1,2.025,0,2.025,2.025,0,0,1,4.05,2.025" transform="translate(0 33.127)"/><path class="a" d="M4.05,2.025A2.025,2.025,0,1,1,2.025,0,2.025,2.025,0,0,1,4.05,2.025" transform="translate(12.579 33.127)"/><path class="a" d="M4.049,2.025A2.025,2.025,0,1,1,2.025,0,2.025,2.025,0,0,1,4.049,2.025" transform="translate(25.158 33.127)"/><path class="a" d="M4.049,2.025A2.025,2.025,0,1,1,2.025,0,2.025,2.025,0,0,1,4.049,2.025" transform="translate(37.737 33.127)"/><path class="a" d="M4.049,2.025A2.025,2.025,0,1,1,2.025,0,2.025,2.025,0,0,1,4.049,2.025" transform="translate(50.316 33.127)"/><path class="a" d="M4.05,2.025A2.025,2.025,0,1,1,2.025,0,2.025,2.025,0,0,1,4.05,2.025" transform="translate(0 44.169)"/><path class="a" d="M4.05,2.025A2.025,2.025,0,1,1,2.025,0,2.025,2.025,0,0,1,4.05,2.025" transform="translate(12.579 44.169)"/><path class="a" d="M4.049,2.025A2.025,2.025,0,1,1,2.025,0,2.025,2.025,0,0,1,4.049,2.025" transform="translate(25.158 44.169)"/><path class="a" d="M4.049,2.025A2.025,2.025,0,1,1,2.025,0,2.025,2.025,0,0,1,4.049,2.025" transform="translate(37.737 44.169)"/><path class="a" d="M4.049,2.025A2.025,2.025,0,1,1,2.025,0,2.025,2.025,0,0,1,4.049,2.025" transform="translate(50.316 44.169)"/></g><g transform="translate(1819.681 3820.362)"><path class="a" d="M7.249,3.625A3.625,3.625,0,1,1,3.624,0,3.625,3.625,0,0,1,7.249,3.625" transform="translate(0 0)"/><path class="a" d="M7.249,3.625A3.625,3.625,0,1,1,3.625,0,3.625,3.625,0,0,1,7.249,3.625" transform="translate(22.517 0)"/><path class="a" d="M7.249,3.625A3.624,3.624,0,1,1,3.624,0,3.625,3.625,0,0,1,7.249,3.625" transform="translate(45.035 0)"/><path class="a" d="M7.249,3.625A3.624,3.624,0,1,1,3.624,0,3.624,3.624,0,0,1,7.249,3.625" transform="translate(67.553 0)"/><path class="a" d="M7.249,3.625A3.624,3.624,0,1,1,3.624,0,3.624,3.624,0,0,1,7.249,3.625" transform="translate(90.07 0)"/><path class="a" d="M7.249,3.625A3.625,3.625,0,1,1,3.624,0,3.625,3.625,0,0,1,7.249,3.625" transform="translate(0 19.767)"/><path class="a" d="M7.249,3.625A3.625,3.625,0,1,1,3.625,0,3.625,3.625,0,0,1,7.249,3.625" transform="translate(22.517 19.767)"/><path class="a" d="M7.249,3.625A3.624,3.624,0,1,1,3.624,0,3.625,3.625,0,0,1,7.249,3.625" transform="translate(45.035 19.767)"/><path class="a" d="M7.249,3.625A3.624,3.624,0,1,1,3.624,0,3.624,3.624,0,0,1,7.249,3.625" transform="translate(67.553 19.767)"/><path class="a" d="M7.249,3.625A3.624,3.624,0,1,1,3.624,0,3.624,3.624,0,0,1,7.249,3.625" transform="translate(90.07 19.767)"/><path class="a" d="M7.249,3.625A3.625,3.625,0,1,1,3.624,0,3.625,3.625,0,0,1,7.249,3.625" transform="translate(0 39.533)"/><path class="a" d="M7.249,3.625A3.625,3.625,0,1,1,3.625,0,3.625,3.625,0,0,1,7.249,3.625" transform="translate(22.517 39.533)"/><path class="a" d="M7.249,3.625A3.624,3.624,0,1,1,3.624,0,3.625,3.625,0,0,1,7.249,3.625" transform="translate(45.035 39.533)"/><path class="a" d="M7.249,3.625A3.624,3.624,0,1,1,3.624,0,3.624,3.624,0,0,1,7.249,3.625" transform="translate(67.553 39.533)"/><path class="a" d="M7.249,3.625A3.624,3.624,0,1,1,3.624,0,3.624,3.624,0,0,1,7.249,3.625" transform="translate(90.07 39.533)"/><path class="a" d="M7.249,3.625A3.625,3.625,0,1,1,3.624,0,3.625,3.625,0,0,1,7.249,3.625" transform="translate(0 59.299)"/><path class="a" d="M7.249,3.625A3.625,3.625,0,1,1,3.625,0,3.625,3.625,0,0,1,7.249,3.625" transform="translate(22.517 59.299)"/><path class="a" d="M7.249,3.625A3.624,3.624,0,1,1,3.624,0,3.625,3.625,0,0,1,7.249,3.625" transform="translate(45.035 59.299)"/><path class="a" d="M7.249,3.625A3.624,3.624,0,1,1,3.624,0,3.624,3.624,0,0,1,7.249,3.625" transform="translate(67.553 59.299)"/><path class="a" d="M7.249,3.625A3.624,3.624,0,1,1,3.624,0,3.624,3.624,0,0,1,7.249,3.625" transform="translate(90.07 59.299)"/><path class="a" d="M7.249,3.625A3.625,3.625,0,1,1,3.624,0,3.625,3.625,0,0,1,7.249,3.625" transform="translate(0 79.066)"/><path class="a" d="M7.249,3.625A3.625,3.625,0,1,1,3.625,0,3.625,3.625,0,0,1,7.249,3.625" transform="translate(22.517 79.066)"/><path class="a" d="M7.249,3.625A3.624,3.624,0,1,1,3.624,0,3.625,3.625,0,0,1,7.249,3.625" transform="translate(45.035 79.066)"/><path class="a" d="M7.249,3.625A3.624,3.624,0,1,1,3.624,0,3.624,3.624,0,0,1,7.249,3.625" transform="translate(67.553 79.066)"/><path class="a" d="M7.249,3.625A3.624,3.624,0,1,1,3.624,0,3.624,3.624,0,0,1,7.249,3.625" transform="translate(90.07 79.066)"/></g><g transform="translate(108.606 4018.634)"><path class="a" d="M7.421,3.711A3.711,3.711,0,1,1,3.71,0,3.711,3.711,0,0,1,7.421,3.711" transform="translate(0 0)"/><path class="a" d="M7.421,3.711A3.711,3.711,0,1,1,3.711,0,3.711,3.711,0,0,1,7.421,3.711" transform="translate(23.052 0)"/><path class="a" d="M7.421,3.711A3.71,3.71,0,1,1,3.71,0,3.711,3.711,0,0,1,7.421,3.711" transform="translate(46.104 0)"/><path class="a" d="M7.421,3.711A3.71,3.71,0,1,1,3.71,0,3.71,3.71,0,0,1,7.421,3.711" transform="translate(69.156 0)"/><path class="a" d="M7.421,3.711A3.71,3.71,0,1,1,3.71,0,3.71,3.71,0,0,1,7.421,3.711" transform="translate(92.208 0)"/><path class="a" d="M7.421,3.711A3.711,3.711,0,1,1,3.71,0,3.711,3.711,0,0,1,7.421,3.711" transform="translate(0 20.236)"/><path class="a" d="M7.421,3.711A3.711,3.711,0,1,1,3.711,0,3.711,3.711,0,0,1,7.421,3.711" transform="translate(23.052 20.236)"/><path class="a" d="M7.421,3.711A3.71,3.71,0,1,1,3.71,0,3.711,3.711,0,0,1,7.421,3.711" transform="translate(46.104 20.236)"/><path class="a" d="M7.421,3.711A3.71,3.71,0,1,1,3.71,0,3.71,3.71,0,0,1,7.421,3.711" transform="translate(69.156 20.236)"/><path class="a" d="M7.421,3.711A3.71,3.71,0,1,1,3.71,0,3.71,3.71,0,0,1,7.421,3.711" transform="translate(92.208 20.236)"/><path class="a" d="M7.421,3.711A3.711,3.711,0,1,1,3.71,0,3.711,3.711,0,0,1,7.421,3.711" transform="translate(0 40.472)"/><path class="a" d="M7.421,3.711A3.711,3.711,0,1,1,3.711,0,3.711,3.711,0,0,1,7.421,3.711" transform="translate(23.052 40.472)"/><path class="a" d="M7.421,3.711A3.71,3.71,0,1,1,3.71,0,3.711,3.711,0,0,1,7.421,3.711" transform="translate(46.104 40.472)"/><path class="a" d="M7.421,3.711A3.71,3.71,0,1,1,3.71,0,3.71,3.71,0,0,1,7.421,3.711" transform="translate(69.156 40.472)"/><path class="a" d="M7.421,3.711A3.71,3.71,0,1,1,3.71,0,3.71,3.71,0,0,1,7.421,3.711" transform="translate(92.208 40.472)"/><path class="a" d="M7.421,3.711A3.711,3.711,0,1,1,3.71,0,3.711,3.711,0,0,1,7.421,3.711" transform="translate(0 60.707)"/><path class="a" d="M7.421,3.711A3.711,3.711,0,1,1,3.711,0,3.711,3.711,0,0,1,7.421,3.711" transform="translate(23.052 60.707)"/><path class="a" d="M7.421,3.711A3.71,3.71,0,1,1,3.71,0,3.711,3.711,0,0,1,7.421,3.711" transform="translate(46.104 60.707)"/><path class="a" d="M7.421,3.711A3.71,3.71,0,1,1,3.71,0,3.71,3.71,0,0,1,7.421,3.711" transform="translate(69.156 60.707)"/><path class="a" d="M7.421,3.711A3.71,3.71,0,1,1,3.71,0,3.71,3.71,0,0,1,7.421,3.711" transform="translate(92.208 60.707)"/><path class="a" d="M7.421,3.711A3.711,3.711,0,1,1,3.71,0,3.711,3.711,0,0,1,7.421,3.711" transform="translate(0 80.943)"/><path class="a" d="M7.421,3.711A3.711,3.711,0,1,1,3.711,0,3.711,3.711,0,0,1,7.421,3.711" transform="translate(23.052 80.943)"/><path class="a" d="M7.421,3.711A3.71,3.71,0,1,1,3.71,0,3.711,3.711,0,0,1,7.421,3.711" transform="translate(46.104 80.943)"/><path class="a" d="M7.421,3.711A3.71,3.71,0,1,1,3.71,0,3.71,3.71,0,0,1,7.421,3.711" transform="translate(69.156 80.943)"/><path class="a" d="M7.421,3.711A3.71,3.71,0,1,1,3.71,0,3.71,3.71,0,0,1,7.421,3.711" transform="translate(92.208 80.943)"/></g><g transform="translate(1505.181 4026.418)"><path class="a" d="M4.849,2.424A2.424,2.424,0,1,1,2.424,0,2.425,2.425,0,0,1,4.849,2.424" transform="translate(0 0)"/><path class="a" d="M4.849,2.424A2.424,2.424,0,1,1,2.424,0,2.425,2.425,0,0,1,4.849,2.424" transform="translate(15.061 0)"/><path class="a" d="M4.848,2.424A2.424,2.424,0,1,1,2.424,0,2.425,2.425,0,0,1,4.848,2.424" transform="translate(30.123 0)"/><path class="a" d="M4.848,2.424A2.424,2.424,0,1,1,2.424,0,2.424,2.424,0,0,1,4.848,2.424" transform="translate(45.184 0)"/><path class="a" d="M4.848,2.424A2.424,2.424,0,1,1,2.424,0,2.424,2.424,0,0,1,4.848,2.424" transform="translate(60.245 0)"/><path class="a" d="M4.849,2.424A2.424,2.424,0,1,1,2.424,0,2.425,2.425,0,0,1,4.849,2.424" transform="translate(0 13.221)"/><path class="a" d="M4.849,2.424A2.424,2.424,0,1,1,2.424,0,2.425,2.425,0,0,1,4.849,2.424" transform="translate(15.061 13.221)"/><path class="a" d="M4.848,2.424A2.424,2.424,0,1,1,2.424,0,2.425,2.425,0,0,1,4.848,2.424" transform="translate(30.123 13.221)"/><path class="a" d="M4.848,2.424A2.424,2.424,0,1,1,2.424,0,2.424,2.424,0,0,1,4.848,2.424" transform="translate(45.184 13.221)"/><path class="a" d="M4.848,2.424A2.424,2.424,0,1,1,2.424,0,2.424,2.424,0,0,1,4.848,2.424" transform="translate(60.245 13.221)"/><path class="a" d="M4.849,2.424A2.424,2.424,0,1,1,2.424,0,2.425,2.425,0,0,1,4.849,2.424" transform="translate(0 26.442)"/><path class="a" d="M4.849,2.424A2.424,2.424,0,1,1,2.424,0,2.425,2.425,0,0,1,4.849,2.424" transform="translate(15.061 26.442)"/><path class="a" d="M4.848,2.424A2.424,2.424,0,1,1,2.424,0,2.425,2.425,0,0,1,4.848,2.424" transform="translate(30.123 26.442)"/><path class="a" d="M4.848,2.424A2.424,2.424,0,1,1,2.424,0,2.424,2.424,0,0,1,4.848,2.424" transform="translate(45.184 26.442)"/><path class="a" d="M4.848,2.424A2.424,2.424,0,1,1,2.424,0,2.424,2.424,0,0,1,4.848,2.424" transform="translate(60.245 26.442)"/><path class="a" d="M4.849,2.424A2.424,2.424,0,1,1,2.424,0,2.425,2.425,0,0,1,4.849,2.424" transform="translate(0 39.664)"/><path class="a" d="M4.849,2.424A2.424,2.424,0,1,1,2.424,0,2.425,2.425,0,0,1,4.849,2.424" transform="translate(15.061 39.664)"/><path class="a" d="M4.848,2.424A2.424,2.424,0,1,1,2.424,0,2.425,2.425,0,0,1,4.848,2.424" transform="translate(30.123 39.664)"/><path class="a" d="M4.848,2.424A2.424,2.424,0,1,1,2.424,0,2.424,2.424,0,0,1,4.848,2.424" transform="translate(45.184 39.664)"/><path class="a" d="M4.848,2.424A2.424,2.424,0,1,1,2.424,0,2.424,2.424,0,0,1,4.848,2.424" transform="translate(60.245 39.664)"/><path class="a" d="M4.849,2.424A2.424,2.424,0,1,1,2.424,0,2.425,2.425,0,0,1,4.849,2.424" transform="translate(0 52.885)"/><path class="a" d="M4.849,2.424A2.424,2.424,0,1,1,2.424,0,2.425,2.425,0,0,1,4.849,2.424" transform="translate(15.061 52.885)"/><path class="a" d="M4.848,2.424A2.424,2.424,0,1,1,2.424,0,2.425,2.425,0,0,1,4.848,2.424" transform="translate(30.123 52.885)"/><path class="a" d="M4.848,2.424A2.424,2.424,0,1,1,2.424,0,2.424,2.424,0,0,1,4.848,2.424" transform="translate(45.184 52.885)"/><path class="a" d="M4.848,2.424A2.424,2.424,0,1,1,2.424,0,2.424,2.424,0,0,1,4.848,2.424" transform="translate(60.245 52.885)"/></g><g transform="translate(425.181 3896.418)"><path class="a" d="M4.849,2.424A2.424,2.424,0,1,1,2.424,0,2.425,2.425,0,0,1,4.849,2.424" transform="translate(0 0)"/><path class="a" d="M4.849,2.424A2.424,2.424,0,1,1,2.424,0,2.425,2.425,0,0,1,4.849,2.424" transform="translate(15.061 0)"/><path class="a" d="M4.848,2.424A2.424,2.424,0,1,1,2.424,0,2.425,2.425,0,0,1,4.848,2.424" transform="translate(30.123 0)"/><path class="a" d="M4.848,2.424A2.424,2.424,0,1,1,2.424,0,2.424,2.424,0,0,1,4.848,2.424" transform="translate(45.184 0)"/><path class="a" d="M4.848,2.424A2.424,2.424,0,1,1,2.424,0,2.424,2.424,0,0,1,4.848,2.424" transform="translate(60.245 0)"/><path class="a" d="M4.849,2.424A2.424,2.424,0,1,1,2.424,0,2.425,2.425,0,0,1,4.849,2.424" transform="translate(0 13.221)"/><path class="a" d="M4.849,2.424A2.424,2.424,0,1,1,2.424,0,2.425,2.425,0,0,1,4.849,2.424" transform="translate(15.061 13.221)"/><path class="a" d="M4.848,2.424A2.424,2.424,0,1,1,2.424,0,2.425,2.425,0,0,1,4.848,2.424" transform="translate(30.123 13.221)"/><path class="a" d="M4.848,2.424A2.424,2.424,0,1,1,2.424,0,2.424,2.424,0,0,1,4.848,2.424" transform="translate(45.184 13.221)"/><path class="a" d="M4.848,2.424A2.424,2.424,0,1,1,2.424,0,2.424,2.424,0,0,1,4.848,2.424" transform="translate(60.245 13.221)"/><path class="a" d="M4.849,2.424A2.424,2.424,0,1,1,2.424,0,2.425,2.425,0,0,1,4.849,2.424" transform="translate(0 26.442)"/><path class="a" d="M4.849,2.424A2.424,2.424,0,1,1,2.424,0,2.425,2.425,0,0,1,4.849,2.424" transform="translate(15.061 26.442)"/><path class="a" d="M4.848,2.424A2.424,2.424,0,1,1,2.424,0,2.425,2.425,0,0,1,4.848,2.424" transform="translate(30.123 26.442)"/><path class="a" d="M4.848,2.424A2.424,2.424,0,1,1,2.424,0,2.424,2.424,0,0,1,4.848,2.424" transform="translate(45.184 26.442)"/><path class="a" d="M4.848,2.424A2.424,2.424,0,1,1,2.424,0,2.424,2.424,0,0,1,4.848,2.424" transform="translate(60.245 26.442)"/><path class="a" d="M4.849,2.424A2.424,2.424,0,1,1,2.424,0,2.425,2.425,0,0,1,4.849,2.424" transform="translate(0 39.664)"/><path class="a" d="M4.849,2.424A2.424,2.424,0,1,1,2.424,0,2.425,2.425,0,0,1,4.849,2.424" transform="translate(15.061 39.664)"/><path class="a" d="M4.848,2.424A2.424,2.424,0,1,1,2.424,0,2.425,2.425,0,0,1,4.848,2.424" transform="translate(30.123 39.664)"/><path class="a" d="M4.848,2.424A2.424,2.424,0,1,1,2.424,0,2.424,2.424,0,0,1,4.848,2.424" transform="translate(45.184 39.664)"/><path class="a" d="M4.848,2.424A2.424,2.424,0,1,1,2.424,0,2.424,2.424,0,0,1,4.848,2.424" transform="translate(60.245 39.664)"/><path class="a" d="M4.849,2.424A2.424,2.424,0,1,1,2.424,0,2.425,2.425,0,0,1,4.849,2.424" transform="translate(0 52.885)"/><path class="a" d="M4.849,2.424A2.424,2.424,0,1,1,2.424,0,2.425,2.425,0,0,1,4.849,2.424" transform="translate(15.061 52.885)"/><path class="a" d="M4.848,2.424A2.424,2.424,0,1,1,2.424,0,2.425,2.425,0,0,1,4.848,2.424" transform="translate(30.123 52.885)"/><path class="a" d="M4.848,2.424A2.424,2.424,0,1,1,2.424,0,2.424,2.424,0,0,1,4.848,2.424" transform="translate(45.184 52.885)"/><path class="a" d="M4.848,2.424A2.424,2.424,0,1,1,2.424,0,2.424,2.424,0,0,1,4.848,2.424" transform="translate(60.245 52.885)"/></g><g transform="translate(288.606 4258.634)"><path class="a" d="M5.6,2.8A2.8,2.8,0,1,1,2.8,0,2.8,2.8,0,0,1,5.6,2.8" transform="translate(0 0)"/><path class="a" d="M5.6,2.8A2.8,2.8,0,1,1,2.8,0,2.8,2.8,0,0,1,5.6,2.8" transform="translate(17.387 0)"/><path class="a" d="M5.6,2.8A2.8,2.8,0,1,1,2.8,0,2.8,2.8,0,0,1,5.6,2.8" transform="translate(34.775 0)"/><path class="a" d="M5.6,2.8A2.8,2.8,0,1,1,2.8,0,2.8,2.8,0,0,1,5.6,2.8" transform="translate(52.163 0)"/><path class="a" d="M5.6,2.8A2.8,2.8,0,1,1,2.8,0,2.8,2.8,0,0,1,5.6,2.8" transform="translate(69.55 0)"/><path class="a" d="M5.6,2.8A2.8,2.8,0,1,1,2.8,0,2.8,2.8,0,0,1,5.6,2.8" transform="translate(0 15.263)"/><path class="a" d="M5.6,2.8A2.8,2.8,0,1,1,2.8,0,2.8,2.8,0,0,1,5.6,2.8" transform="translate(17.387 15.263)"/><path class="a" d="M5.6,2.8A2.8,2.8,0,1,1,2.8,0,2.8,2.8,0,0,1,5.6,2.8" transform="translate(34.775 15.263)"/><path class="a" d="M5.6,2.8A2.8,2.8,0,1,1,2.8,0,2.8,2.8,0,0,1,5.6,2.8" transform="translate(52.163 15.263)"/><path class="a" d="M5.6,2.8A2.8,2.8,0,1,1,2.8,0,2.8,2.8,0,0,1,5.6,2.8" transform="translate(69.55 15.263)"/><path class="a" d="M5.6,2.8A2.8,2.8,0,1,1,2.8,0,2.8,2.8,0,0,1,5.6,2.8" transform="translate(0 30.527)"/><path class="a" d="M5.6,2.8A2.8,2.8,0,1,1,2.8,0,2.8,2.8,0,0,1,5.6,2.8" transform="translate(17.387 30.527)"/><path class="a" d="M5.6,2.8A2.8,2.8,0,1,1,2.8,0,2.8,2.8,0,0,1,5.6,2.8" transform="translate(34.775 30.527)"/><path class="a" d="M5.6,2.8A2.8,2.8,0,1,1,2.8,0,2.8,2.8,0,0,1,5.6,2.8" transform="translate(52.163 30.527)"/><path class="a" d="M5.6,2.8A2.8,2.8,0,1,1,2.8,0,2.8,2.8,0,0,1,5.6,2.8" transform="translate(69.55 30.527)"/><path class="a" d="M5.6,2.8A2.8,2.8,0,1,1,2.8,0,2.8,2.8,0,0,1,5.6,2.8" transform="translate(0 45.79)"/><path class="a" d="M5.6,2.8A2.8,2.8,0,1,1,2.8,0,2.8,2.8,0,0,1,5.6,2.8" transform="translate(17.387 45.79)"/><path class="a" d="M5.6,2.8A2.8,2.8,0,1,1,2.8,0,2.8,2.8,0,0,1,5.6,2.8" transform="translate(34.775 45.79)"/><path class="a" d="M5.6,2.8A2.8,2.8,0,1,1,2.8,0,2.8,2.8,0,0,1,5.6,2.8" transform="translate(52.163 45.79)"/><path class="a" d="M5.6,2.8A2.8,2.8,0,1,1,2.8,0,2.8,2.8,0,0,1,5.6,2.8" transform="translate(69.55 45.79)"/><path class="a" d="M5.6,2.8A2.8,2.8,0,1,1,2.8,0,2.8,2.8,0,0,1,5.6,2.8" transform="translate(0 61.053)"/><path class="a" d="M5.6,2.8A2.8,2.8,0,1,1,2.8,0,2.8,2.8,0,0,1,5.6,2.8" transform="translate(17.387 61.053)"/><path class="a" d="M5.6,2.8A2.8,2.8,0,1,1,2.8,0,2.8,2.8,0,0,1,5.6,2.8" transform="translate(34.775 61.053)"/><path class="a" d="M5.6,2.8A2.8,2.8,0,1,1,2.8,0,2.8,2.8,0,0,1,5.6,2.8" transform="translate(52.163 61.053)"/><path class="a" d="M5.6,2.8A2.8,2.8,0,1,1,2.8,0,2.8,2.8,0,0,1,5.6,2.8" transform="translate(69.55 61.053)"/></g></g></svg>