<svg xmlns="http://www.w3.org/2000/svg" width="123.751" height="109.192" viewBox="0 0 123.751 109.192"><defs><style>.a{fill:#00edf3;}</style></defs><path class="a" d="M9.706,4.853A4.853,4.853,0,1,1,4.853,0,4.853,4.853,0,0,1,9.706,4.853"/><path class="a" d="M9.706,4.853A4.853,4.853,0,1,1,4.853,0,4.853,4.853,0,0,1,9.706,4.853" transform="translate(27.905)"/><path class="a" d="M9.706,4.853A4.853,4.853,0,1,1,4.853,0,4.853,4.853,0,0,1,9.706,4.853" transform="translate(57.022)"/><path class="a" d="M9.706,4.853A4.853,4.853,0,1,1,4.853,0,4.853,4.853,0,0,1,9.706,4.853" transform="translate(84.927)"/><path class="a" d="M9.706,4.853A4.853,4.853,0,1,1,4.853,0,4.853,4.853,0,0,1,9.706,4.853" transform="translate(114.045)"/><path class="a" d="M9.706,4.853A4.853,4.853,0,1,1,4.853,0,4.853,4.853,0,0,1,9.706,4.853" transform="translate(0 24.265)"/><path class="a" d="M9.706,4.853A4.853,4.853,0,1,1,4.853,0,4.852,4.852,0,0,1,9.706,4.853" transform="translate(27.905 24.265)"/><path class="a" d="M9.706,4.853A4.853,4.853,0,1,1,4.853,0,4.853,4.853,0,0,1,9.706,4.853" transform="translate(57.022 24.265)"/><path class="a" d="M9.706,4.853A4.853,4.853,0,1,1,4.853,0,4.852,4.852,0,0,1,9.706,4.853" transform="translate(84.927 24.265)"/><path class="a" d="M9.706,4.853A4.853,4.853,0,1,1,4.853,0,4.853,4.853,0,0,1,9.706,4.853" transform="translate(114.045 24.265)"/><path class="a" d="M9.706,4.853A4.853,4.853,0,1,1,4.853,0,4.853,4.853,0,0,1,9.706,4.853" transform="translate(0 49.743)"/><path class="a" d="M9.706,4.853A4.853,4.853,0,1,1,4.853,0,4.853,4.853,0,0,1,9.706,4.853" transform="translate(27.905 49.743)"/><path class="a" d="M9.706,4.853A4.853,4.853,0,1,1,4.853,0,4.853,4.853,0,0,1,9.706,4.853" transform="translate(57.022 49.743)"/><path class="a" d="M9.706,4.853A4.853,4.853,0,1,1,4.853,0,4.853,4.853,0,0,1,9.706,4.853" transform="translate(84.927 49.743)"/><path class="a" d="M9.706,4.853A4.853,4.853,0,1,1,4.853,0,4.853,4.853,0,0,1,9.706,4.853" transform="translate(114.045 49.743)"/><path class="a" d="M9.706,4.853A4.853,4.853,0,1,1,4.853,0,4.853,4.853,0,0,1,9.706,4.853" transform="translate(0 74.008)"/><path class="a" d="M9.706,4.853A4.853,4.853,0,1,1,4.853,0,4.852,4.852,0,0,1,9.706,4.853" transform="translate(27.905 74.008)"/><path class="a" d="M9.706,4.853A4.853,4.853,0,1,1,4.853,0,4.853,4.853,0,0,1,9.706,4.853" transform="translate(57.022 74.008)"/><path class="a" d="M9.706,4.853A4.853,4.853,0,1,1,4.853,0,4.852,4.852,0,0,1,9.706,4.853" transform="translate(84.927 74.008)"/><path class="a" d="M9.706,4.853A4.853,4.853,0,1,1,4.853,0,4.853,4.853,0,0,1,9.706,4.853" transform="translate(114.045 74.008)"/><path class="a" d="M9.706,4.853A4.853,4.853,0,1,1,4.853,0,4.853,4.853,0,0,1,9.706,4.853" transform="translate(0 99.486)"/><path class="a" d="M9.706,4.853A4.853,4.853,0,1,1,4.853,0,4.853,4.853,0,0,1,9.706,4.853" transform="translate(27.905 99.486)"/><path class="a" d="M9.706,4.853A4.853,4.853,0,1,1,4.853,0,4.853,4.853,0,0,1,9.706,4.853" transform="translate(57.022 99.486)"/><path class="a" d="M9.706,4.853A4.853,4.853,0,1,1,4.853,0,4.853,4.853,0,0,1,9.706,4.853" transform="translate(84.927 99.486)"/><path class="a" d="M9.706,4.853A4.853,4.853,0,1,1,4.853,0,4.853,4.853,0,0,1,9.706,4.853" transform="translate(114.045 99.486)"/></svg>