<svg xmlns="http://www.w3.org/2000/svg" width="690.961" height="653.519" viewBox="0 0 690.961 653.519"><defs><style>.a,.j,.k{fill:#e9701f;}.a,.b,.c{opacity:0.46;}.b{fill:#f37721;}.c,.e,.f,.g,.h,.i{fill:#d15e09;}.d{opacity:0.48;}.f{opacity:0.416;}.g{opacity:0.472;}.h{opacity:0.327;}.i{opacity:0.607;}.k{opacity:0.607;}</style></defs><g transform="translate(-1392.812 -1586.602)"><path class="a" d="M3.712,11.808l4.606-1.47,4.842-.545,4.551-1.7,4.717-1.05,4.681-1.193L31.773,4.6,36.29,2.765l4.759-.9L45.665.388,50.557,0l5.087,1.308.421,5.647L53.279,11l-2.946,3.955-2.181,4.408-1.743,4.675-3.332,3.723L40.6,32,38.921,36.71l-3.506,3.625-2.292,4.349-1.629,4.742-3.319,3.737-2.52,4.213-2.271,4.372-2.833,4.037-4.259,2.173L12.5,64.75l-1.553-4.62-.839-4.807-1.45-4.652L6.918,46.1l-.2-4.976L5.428,36.43,4.315,31.692l-1.49-4.645-.978-4.781L0,17.709l1.15-3.5Z" transform="matrix(0.978, 0.208, -0.208, 0.978, 2000.439, 1672.091)"/><path class="b" d="M3.036,9.657,6.8,8.455l3.96-.446,3.722-1.391,3.858-.859,3.828-.976,3.814-1.024,3.694-1.5,3.892-.739L37.348.317l4-.317L45.51,1.07l.345,4.618-2.28,3.306-2.409,3.235-1.784,3.605-1.425,3.824L35.231,22.7,33.207,26.17l-1.375,3.854-2.868,2.965L27.09,36.546l-1.332,3.879-2.715,3.056-2.061,3.446L19.125,50.5l-2.317,3.3-3.484,1.777-3.1-2.624-1.27-3.778-.686-3.932-1.186-3.8L5.658,37.7l-.165-4.069L4.439,29.795l-.91-3.875-1.219-3.8-.8-3.91L0,14.484l.941-2.862Z" transform="translate(1997.341 2136.358) rotate(-14)"/><path class="c" d="M1.415,4.5l1.756-.56,1.846-.208,1.735-.648,1.8-.4,1.784-.455,1.778-.477,1.722-.7L15.647.71,17.407.148,19.271,0l1.939.5.161,2.152L20.309,4.192,19.186,5.7l-.831,1.68-.664,1.782-1.27,1.419L15.477,12.2l-.641,1.8L13.5,15.375l-.874,1.658-.621,1.808L10.74,20.265l-.961,1.606-.866,1.666-1.08,1.539L6.21,25.9,4.767,24.682l-.592-1.761-.32-1.832L3.3,19.315l-.665-1.744-.077-1.9-.491-1.788L1.645,12.08,1.077,10.31.7,8.487,0,6.751.438,5.417Z" transform="translate(2036.527 1768.303) rotate(77)"/><g class="d" transform="translate(1314.923 1738.493) rotate(-14)"><path class="e" d="M69.639,2.236,66.17,9.4l-4.661,6.3L56.8,21.953l-5.469,5.711-3.884,6.859-4.052,6.74-5.075,5.993-5.072,6-4.4,6.485-4.332,6.535-5.405,5.76-2.489,7.877L9.949,84.756,6.583,92,1.8,98.216,0,104.883l5.635,4.552,7.814,1.922,8.188.087,8.056.747,7.825,1.887,7.524,3.374,7.785,2.091,7.917,1.437,8.316-.544,7.9,1.539,7.555,3.22,7.766,2.178,8.086.6,7.912,1.479,7.921,1.422,7.728,2.407,8.051.8,5.53-2.821,2.142-6.46-3.52-7.083-3.979-6.859-3-7.331-2.813-7.424-4.9-6.417L117.6,82.762l-2.43-7.61-4.115-6.8-1.876-7.876-3.254-7.211-5.145-6.3-2.218-7.71-3.182-7.248-2.742-7.464-4.767-6.484L84.187,11.05,80.32,4.126,76.042,0Z" transform="translate(322.009 109.995)"/><path class="e" d="M23.67.094,21.254,1.6,18.679,2.816,16.013,3.855,13.624,5.413,11.032,6.591l-2.5,1.355L5.946,9.14l-2.3,1.74L.961,11.9,0,13.722l.7,1.857,2.162,1.8L5.3,18.827,7.176,21,9.437,22.67l2.161,1.8,2.241,1.7L16.3,27.6l1.961,2.065,2.362,1.558,2.184,1.787,2.378.335,1.073-2.062.168-2.655.183-2.654-.234-2.661.24-2.655L26.467,18l.144-2.653-.276-2.664.145-2.656.359-2.654-.3-2.669L27.1,2.049,25.913,0Z" transform="translate(495.004 185.029)"/><path class="e" d="M4.431,2.059,4.167,4.046,3.236,5.9l-.163,2.01L2.712,9.871,2.067,11.78l-.429,1.956-.225,2-.4,1.964L.468,19.634,0,21.586.482,23.5l1.643.815L3.71,23.85l1.7-1.08,1.9-.786,1.407-1.533,1.732-1.041,1.759-1,1.875-.822,1.559-1.3,1.834-.878,1.61-1.224,1.8-.936L22.3,11.728l1.674-1.133,2.042-.576,1.448-1.485,1.018-1.482L27.952,5.4,26.664,4.243l-1.986-.251-1.919-.578-2.012-.127-1.881-.743-1.893-.7-2.1.3L13.066,1,11.06.837,9.117.349,7.145,0,5.455.727Z" transform="translate(370.642 48.856)"/><path class="f" d="M31.127,10.053,26.573,8.842l-4.333-1.79-4.25-2L13.615,3.358l-4.5-1.391L4.841,0,.752,1.14,0,5.163,1.965,9.72l1.376,4.815,2.7,4.229,1.876,4.6,1.638,4.7,1.767,4.646,2.318,4.414L15.7,41.649l3.76,2.816,3.287-3.1,2.178-4.166,1.245-4.536,2.054-4.22,2.053-4.223,1.082-4.61,1.989-4.255Z" transform="translate(663.255 23.514)"/><path class="e" d="M42.818,9.657l-3.767-1.2-3.96-.446L31.368,6.618l-3.858-.859-3.828-.976L19.868,3.759l-3.694-1.5-3.892-.739L8.507.317,4.506,0,.345,1.07,0,5.688,2.28,8.994l2.409,3.235,1.784,3.605L7.9,19.658,10.623,22.7l2.024,3.467,1.375,3.854,2.868,2.965,1.874,3.557L20.1,40.424l2.715,3.056,2.061,3.446L26.729,50.5l2.317,3.3,3.484,1.777,3.1-2.624,1.27-3.778.686-3.932,1.186-3.8L40.2,37.7l.165-4.069,1.054-3.837.91-3.875,1.219-3.8.8-3.91,1.511-3.726-.941-2.862Z" transform="translate(449.845 67.614)"/><path class="g" d="M0,68.26l1.563-4.177,4.066-1.876,1.615-4.131,3.729-2.186,2.464-3.35,3.186-2.687,2-3.771,2.469-3.347,3.176-2.689,3.054-2.808L30.451,34.5l1.755-4.006,2.975-2.879,3.152-2.72,2.709-3.13L44.6,19.414l1.976-3.8,3.461-2.437,1.758-4.006,3.839-2.091,2.146-3.658L60.18,0,63.9,1.417,66.1,5.028l2.4,3.508,1.557,3.926L72.1,16.148l1.842,3.786,1.586,3.913,1.807,3.8L78.7,31.67l2.241,3.585,2.6,3.411,2.1,3.654L87.6,46.053l.648,4.378,1.664,3.876,2.376,3.524L94.568,61.4l.967,4.22,2.556,3.439,1.122,4.151,2.223,3.607-2.017,3.772-4.051-1.014L91.32,78.49l-4.2.712L83.13,77.48l-4.148.108-4.15.126L70.8,76.493l-4.266,1.463-4.076-.733-4.024-1.352-4.1-.438-4.1-.412-4.16.277-4.03-1.289-4.258,1.41L33.8,73.54l-4.112-.349L25.44,74.408l-4.013-1.5L17.3,72.8,13.24,71.8,9,72.975l-4.122-.291L.882,70.866Z" transform="translate(526.415 0)"/><path class="e" d="M.327,5.422l.8,1.644.488,1.77L2.2,10.568l.921,1.6.631,1.713.522,1.759.893,1.607.419,1.8.981,1.572.311,1.846.751,1.666,1.059,1.538.525,1.757.639,1.714.695,1.691,1.1,1.528.127,1.926,1.258,1.465,1.036,1.34,1.5.983,1.945.141,1.2-1.515,1.4-1.129,1.532-1.013.688-1.762,1.541-1,1.044-1.449,1.415-1.118.932-1.548,1.55-1,1.112-1.389.837-1.628,1.278-1.235,1.51-1.037,1.173-1.333,1.014-1.476L36.876,17.2l1.291-1.231,1.327-1.2.772-1.7,1.521-1.036.445-1.548L42.38,9.01,42.213,7.4l-1.43-.791L39.494,5.531l-1.738-.423-1.839.208-1.793-.083-1.714-.583L30.69,4.111l-1.8-.043-1.732-.481-1.82.083L23.62,3.091l-1.8-.054-1.775-.209-1.8-.066-1.793-.1-1.682-.793-1.82.079-1.743-.433L9.427,1.34l-1.76-.329L5.884.816,4.2,0,2.3.935.491,1.713,0,3.615Z" transform="translate(591.576 156.543)"/><path class="e" d="M31.127,10.053,26.573,8.842l-4.333-1.79-4.25-2L13.615,3.358l-4.5-1.391L4.841,0,.752,1.14,0,5.163,1.965,9.72l1.376,4.815,2.7,4.229,1.876,4.6,1.638,4.7,1.767,4.646,2.318,4.414L15.7,41.649l3.76,2.816,3.287-3.1,2.178-4.166,1.245-4.536,2.054-4.22,2.053-4.223,1.082-4.61,1.989-4.255Z" transform="translate(496.751 319.06) rotate(-167)"/><path class="h" d="M58.772,18.982l-8.6-2.288-8.182-3.379L33.968,9.53l-8.26-3.19-8.5-2.627L9.14,0,1.419,2.153,0,9.748l3.71,8.6,2.6,9.091,5.1,7.985,3.542,8.679,3.092,8.877,3.337,8.772,4.377,8.334,3.889,8.548,7.1,5.317,6.206-5.862,4.112-7.865,2.351-8.565L53.292,53.7l3.877-7.973,2.043-8.7,3.755-8.035Z" transform="translate(398.415 577.677) rotate(-121)"/><path class="e" d="M23.67.094,21.254,1.6,18.679,2.816,16.013,3.855,13.624,5.413,11.032,6.591l-2.5,1.355L5.946,9.14l-2.3,1.74L.961,11.9,0,13.722l.7,1.857,2.162,1.8L5.3,18.827,7.176,21,9.437,22.67l2.161,1.8,2.241,1.7L16.3,27.6l1.961,2.065,2.362,1.558,2.184,1.787,2.378.335,1.073-2.062.168-2.655.183-2.654-.234-2.661.24-2.655L26.467,18l.144-2.653-.276-2.664.145-2.656.359-2.654-.3-2.669L27.1,2.049,25.913,0Z" transform="matrix(-0.616, -0.788, 0.788, -0.616, 491.475, 538.084)"/><path class="e" d="M0,59.947l1.373-3.669,3.571-1.647L6.362,51l3.275-1.92L11.8,46.141l2.8-2.36,1.757-3.312,2.168-2.939,2.789-2.362L24,32.7l2.747-2.4,1.542-3.518L30.9,24.251l2.768-2.388,2.379-2.748,3.122-2.065L40.9,13.714l3.039-2.14,1.544-3.518,3.372-1.837,1.885-3.212L52.851,0,56.12,1.245l1.927,3.171,2.11,3.08,1.367,3.448,1.8,3.237,1.618,3.325,1.392,3.437,1.587,3.341,1.2,3.529,1.968,3.148,2.285,3,1.848,3.209,1.714,3.278.569,3.845,1.462,3.4,2.087,3.095,2,3.137.849,3.706,2.245,3.02.985,3.646,1.952,3.167L87.31,70.777l-3.557-.89L80.2,68.931l-3.687.625-3.506-1.512-3.643.095-3.644.111-3.543-1.072L58.43,68.462l-3.58-.644-3.534-1.187-3.6-.385-3.6-.362-3.653.243L36.915,65l-3.739,1.238-3.494-1.65-3.611-.307-3.729,1.069-3.524-1.315-3.628-.1-3.562-.871L7.9,64.087l-3.62-.256-3.506-1.6Z" transform="translate(693.482 209.571) rotate(-132)"/><path class="e" d="M0,48.812l1.118-2.987,2.908-1.341L5.18,41.529l2.667-1.563,1.762-2.4,2.278-1.922,1.431-2.7,1.765-2.393,2.271-1.923,2.184-2.008,2.237-1.957,1.255-2.865,2.127-2.059L27.412,17.8l1.937-2.238,2.542-1.681L33.3,11.167l2.475-1.743,1.257-2.865,2.745-1.5,1.535-2.616L43.034,0,45.7,1.013,47.265,3.6,48.982,6.1,50.1,8.911l1.462,2.636,1.317,2.707,1.134,2.8L55.3,19.773l.979,2.874,1.6,2.564,1.861,2.439,1.5,2.613,1.4,2.669.463,3.131,1.19,2.772,1.7,2.52,1.628,2.554.691,3.018,1.828,2.459.8,2.969,1.589,2.579-1.442,2.7-2.9-.725L65.3,56.127l-3,.509L59.445,55.4l-2.966.077-2.967.09L50.627,54.7l-3.05,1.046-2.915-.524-2.877-.967-2.935-.313-2.935-.295-2.975.2-2.882-.922-3.045,1.008-2.845-1.344-2.94-.25-3.036.87-2.869-1.071-2.954-.082-2.9-.71-3.036.838-2.948-.208L.63,50.675Z" transform="translate(614.59 443.474) rotate(-83)"/><path class="e" d="M69.639,2.236,66.17,9.4l-4.661,6.3L56.8,21.953l-5.469,5.711-3.884,6.859-4.052,6.74-5.075,5.993-5.072,6-4.4,6.485-4.332,6.535-5.405,5.76-2.489,7.877L9.949,84.756,6.583,92,1.8,98.216,0,104.883l5.635,4.552,7.814,1.922,8.188.087,8.056.747,7.825,1.887,7.524,3.374,7.785,2.091,7.917,1.437,8.316-.544,7.9,1.539,7.554,3.22,7.766,2.178,8.086.6,7.912,1.479,7.921,1.422,7.728,2.407,8.051.8,5.53-2.821,2.142-6.46-3.52-7.083-3.979-6.859-3-7.331-2.813-7.424-4.9-6.417L117.6,82.762l-2.43-7.61-4.115-6.8-1.876-7.876-3.254-7.211-5.145-6.3-2.218-7.71-3.182-7.248-2.742-7.464-4.767-6.484L84.187,11.05,80.32,4.126,76.042,0Z" transform="translate(0 321.958) rotate(-21)"/><path class="i" d="M58.772,18.982l-8.6-2.288-8.182-3.379L33.968,9.53l-8.26-3.19-8.5-2.627L9.14,0,1.419,2.153,0,9.748l3.71,8.6,2.6,9.091,5.1,7.985,3.542,8.679,3.092,8.877,3.337,8.772,4.377,8.334,3.889,8.548,7.1,5.317,6.206-5.862,4.112-7.865,2.351-8.565L53.292,53.7l3.877-7.973,2.043-8.7,3.755-8.035Z" transform="matrix(-0.259, 0.966, -0.966, -0.259, 580.712, 551.645)"/></g><g class="d" transform="translate(1366.968 1782.375) rotate(-14)"><path class="j" d="M70.008,2.236,73.476,9.4l4.661,6.3,4.713,6.259,5.469,5.711L92.2,34.523l4.052,6.74,5.075,5.993,5.072,6,4.4,6.485,4.332,6.535,5.405,5.76,2.489,7.877,6.668,4.846L133.064,92l4.787,6.215,1.8,6.667-5.635,4.552-7.814,1.922-8.188.087-8.056.747-7.825,1.887L94.6,117.451l-7.785,2.091L78.9,120.978l-8.316-.544-7.9,1.539-7.554,3.22-7.766,2.178-8.086.6-7.912,1.479-7.921,1.422-7.728,2.407-8.051.8-5.53-2.821L0,124.807l3.52-7.083L7.5,110.866l3-7.331,2.813-7.424,4.9-6.417,3.835-6.931,2.43-7.61,4.115-6.8,1.876-7.876,3.254-7.211,5.145-6.3,2.218-7.71,3.183-7.248,2.742-7.464,4.767-6.484L55.46,11.05l3.867-6.924L63.6,0Z" transform="translate(482.162 334.939)"/><path class="j" d="M3.426.094,5.842,1.6,8.417,2.816l2.665,1.039,2.389,1.558,2.592,1.178,2.5,1.355L21.149,9.14l2.3,1.74,2.682,1.02.961,1.821-.7,1.857-2.162,1.8-2.439,1.449L19.92,21,17.658,22.67l-2.161,1.8-2.241,1.7L10.8,27.6,8.836,29.668,6.473,31.226,4.289,33.013l-2.378.335L.839,31.287.67,28.632.488,25.978l.234-2.661-.24-2.655L.629,18,.485,15.347l.276-2.664L.617,10.027.258,7.373.563,4.7,0,2.049,1.182,0Z" transform="translate(435.73 409.973)"/><path class="j" d="M24.054,2.059l.264,1.987L25.25,5.9l.163,2.01.361,1.965.645,1.909.429,1.956.225,2,.4,1.964.547,1.935.468,1.952L28,23.5l-1.643.815-1.585-.467-1.7-1.08-1.9-.786-1.407-1.533L18.037,19.41l-1.759-1L14.4,17.593l-1.559-1.3-1.834-.878L9.4,14.188l-1.8-.936L6.181,11.728,4.508,10.594l-2.042-.576L1.018,8.534,0,7.052.534,5.4,1.821,4.243l1.986-.251,1.919-.578,2.012-.127,1.881-.743,1.893-.7,2.1.3L15.419,1,17.425.837,19.368.349,21.34,0l1.69.727Z" transform="translate(544.69 273.8)"/><path class="j" d="M2.222,10.053,6.776,8.842l4.333-1.79,4.25-2,4.375-1.689,4.5-1.391L28.508,0,32.6,1.14l.752,4.022L31.383,9.72l-1.376,4.815-2.7,4.229-1.876,4.6-1.638,4.7-1.767,4.646-2.318,4.414-2.059,4.527-3.76,2.816L10.6,41.36,8.423,37.195,7.178,32.659l-2.054-4.22L3.071,24.216l-1.082-4.61L0,15.35Z" transform="translate(268.448 264.073)"/><path class="j" d="M3.036,9.657,6.8,8.455l3.96-.446,3.722-1.391,3.858-.859,3.828-.976,3.814-1.024,3.694-1.5,3.892-.739L37.348.317l4-.317L45.51,1.07l.345,4.618-2.28,3.306-2.409,3.235-1.784,3.605-1.425,3.824L35.231,22.7,33.207,26.17l-1.375,3.854-2.868,2.965L27.09,36.546l-1.332,3.879-2.715,3.056-2.061,3.446L19.125,50.5l-2.317,3.3-3.484,1.777-3.1-2.624-1.27-3.778-.686-3.932-1.186-3.8L5.658,37.7l-.165-4.069L4.439,29.795l-.91-3.875-1.219-3.8-.8-3.91L0,14.484l.941-2.862Z" transform="translate(459.051 292.558)"/><path class="j" d="M101.435,68.26l-1.563-4.177-4.066-1.876-1.615-4.131L90.461,55.89,88,52.539l-3.186-2.687-2-3.771-2.469-3.347-3.176-2.689-3.054-2.808L70.984,34.5l-1.755-4.006-2.975-2.879L63.1,24.895l-2.709-3.13-3.555-2.351-1.976-3.8L51.4,13.179,49.643,9.173,45.8,7.081,43.657,3.423,41.255,0,37.533,1.417,35.338,5.028l-2.4,3.508L31.38,12.462l-2.045,3.686-1.842,3.786-1.586,3.913-1.807,3.8L22.731,31.67,20.49,35.255l-2.6,3.411-2.1,3.654-1.951,3.733-.648,4.378-1.664,3.876L9.145,57.831,6.867,61.4,5.9,65.623,3.344,69.062,2.223,73.214,0,76.82l2.017,3.772,4.051-1.014,4.047-1.088,4.2.712L18.3,77.48l4.148.108,4.15.126,4.034-1.221L34.9,77.956l4.076-.733L43,75.871l4.1-.438,4.1-.412,4.16.277,4.03-1.289,4.258,1.41,3.979-1.879,4.112-.349L76,74.408l4.013-1.5,4.131-.115,4.056-.992,4.245,1.171,4.122-.291,3.992-1.818Z" transform="translate(322.639 266.852)"/><path class="j" d="M42.054,5.422l-.8,1.644-.488,1.77-.582,1.732-.921,1.6-.631,1.713-.522,1.759-.893,1.607-.419,1.8-.981,1.572L35.5,22.461l-.751,1.666-1.059,1.538-.525,1.757-.639,1.714-.695,1.691-1.1,1.528-.127,1.926-1.258,1.465-1.036,1.34-1.5.983-1.945.141-1.2-1.515-1.4-1.129-1.532-1.013-.688-1.762-1.541-1L17.461,30.34l-1.415-1.118-.932-1.548-1.55-1-1.112-1.389-.837-1.628-1.278-1.235-1.51-1.037L7.654,20.054,6.639,18.577,5.5,17.2,4.213,15.973l-1.327-1.2-.772-1.7L.594,12.032.149,10.485,0,9.01.167,7.4,1.6,6.606,2.886,5.531l1.738-.423,1.839.208,1.793-.083L9.97,4.651l1.721-.539,1.8-.043,1.732-.481,1.82.083,1.717-.579,1.8-.054,1.775-.209,1.8-.066,1.793-.1,1.682-.793,1.82.079,1.743-.433,1.782-.174,1.76-.329L36.5.816,38.184,0l1.9.935,1.807.779.491,1.9Z" transform="translate(332.679 381.488)"/><path class="j" d="M3.036,9.657,6.8,8.455l3.96-.446,3.722-1.391,3.858-.859,3.828-.976,3.814-1.024,3.694-1.5,3.892-.739L37.348.317l4-.317L45.51,1.07l.345,4.618-2.28,3.306-2.409,3.235-1.784,3.605-1.425,3.824L35.231,22.7,33.207,26.17l-1.375,3.854-2.868,2.965L27.09,36.546l-1.332,3.879-2.715,3.056-2.061,3.446L19.125,50.5l-2.317,3.3-3.484,1.777-3.1-2.624-1.27-3.778-.686-3.932-1.186-3.8L5.658,37.7l-.165-4.069L4.439,29.795l-.91-3.875-1.219-3.8-.8-3.91L0,14.484l.941-2.862Z" transform="translate(679.038 0)"/><path class="j" d="M3.426.094,5.842,1.6,8.417,2.816l2.665,1.039,2.389,1.558,2.592,1.178,2.5,1.355L21.149,9.14l2.3,1.74,2.682,1.02.961,1.821-.7,1.857-2.162,1.8-2.439,1.449L19.92,21,17.658,22.67l-2.161,1.8-2.241,1.7L10.8,27.6,8.836,29.668,6.473,31.226,4.289,33.013l-2.378.335L.839,31.287.67,28.632.488,25.978l.234-2.661-.24-2.655L.629,18,.485,15.347l.276-2.664L.617,10.027.258,7.373.563,4.7,0,2.049,1.182,0Z" transform="translate(639.897 205.719)"/><path class="j" d="M3.426.094,5.842,1.6,8.417,2.816l2.665,1.039,2.389,1.558,2.592,1.178,2.5,1.355L21.149,9.14l2.3,1.74,2.682,1.02.961,1.821-.7,1.857-2.162,1.8-2.439,1.449L19.92,21,17.658,22.67l-2.161,1.8-2.241,1.7L10.8,27.6,8.836,29.668,6.473,31.226,4.289,33.013l-2.378.335L.839,31.287.67,28.632.488,25.978l.234-2.661-.24-2.655L.629,18,.485,15.347l.276-2.664L.617,10.027.258,7.373.563,4.7,0,2.049,1.182,0Z" transform="translate(545.285 528.256)"/><path class="j" d="M3.426.094,5.842,1.6,8.417,2.816l2.665,1.039,2.389,1.558,2.592,1.178,2.5,1.355L21.149,9.14l2.3,1.74,2.682,1.02.961,1.821-.7,1.857-2.162,1.8-2.439,1.449L19.92,21,17.658,22.67l-2.161,1.8-2.241,1.7L10.8,27.6,8.836,29.668,6.473,31.226,4.289,33.013l-2.378.335L.839,31.287.67,28.632.488,25.978l.234-2.661-.24-2.655L.629,18,.485,15.347l.276-2.664L.617,10.027.258,7.373.563,4.7,0,2.049,1.182,0Z" transform="translate(494.726 149.472)"/><path class="j" d="M79.489,53.492l-1.225-3.274-3.187-1.47-1.266-3.238L70.89,43.8l-1.931-2.625-2.5-2.106-1.568-2.955-1.935-2.623L60.47,31.381l-2.393-2.2-2.451-2.145L54.251,23.9,51.919,21.64l-2.47-2.131-2.123-2.453-2.786-1.842-1.549-2.976-2.712-1.91L38.9,7.188,35.894,5.549,34.212,2.683,32.329,0,29.412,1.111,27.693,3.94,25.81,6.689,24.59,9.766l-1.6,2.888-1.444,2.967L20.3,18.687l-1.416,2.982-1.073,3.149-1.756,2.809L14.018,30.3l-1.649,2.864L10.84,36.089l-.507,3.431-1.3,3.037L7.166,45.319l-1.785,2.8-.757,3.307-2,2.695-.879,3.253L0,60.2l1.581,2.956,3.174-.795,3.171-.852,3.29.558,3.128-1.35,3.251.084,3.252.1,3.162-.957,3.343,1.147,3.194-.575L33.7,59.456l3.216-.343,3.217-.323,3.26.217L46.549,58,49.886,59.1,53,57.629l3.222-.274,3.327.954L62.7,57.136l3.237-.09,3.179-.778,3.327.918,3.23-.228L78.8,55.534Z" transform="matrix(0.616, 0.788, -0.788, 0.616, 49.767, 347.09)"/><path class="j" d="M2.222,10.053,6.776,8.842l4.333-1.79,4.25-2,4.375-1.689,4.5-1.391L28.508,0,32.6,1.14l.752,4.022L31.383,9.72l-1.376,4.815-2.7,4.229-1.876,4.6-1.638,4.7-1.767,4.646-2.318,4.414-2.059,4.527-3.76,2.816L10.6,41.36,8.423,37.195,7.178,32.659l-2.054-4.22L3.071,24.216l-1.082-4.61L0,15.35Z" transform="translate(87.19 366.807)"/><path class="j" d="M3.036,9.657,6.8,8.455l3.96-.446,3.722-1.391,3.858-.859,3.828-.976,3.814-1.024,3.694-1.5,3.892-.739L37.348.317l4-.317L45.51,1.07l.345,4.618-2.28,3.306-2.409,3.235-1.784,3.605-1.425,3.824L35.231,22.7,33.207,26.17l-1.375,3.854-2.868,2.965L27.09,36.546l-1.332,3.879-2.715,3.056-2.061,3.446L19.125,50.5l-2.317,3.3-3.484,1.777-3.1-2.624-1.27-3.778-.686-3.932-1.186-3.8L5.658,37.7l-.165-4.069L4.439,29.795l-.91-3.875-1.219-3.8-.8-3.91L0,14.484l.941-2.862Z" transform="matrix(0.309, 0.951, -0.951, 0.309, 124.465, 412.141)"/><path class="j" d="M3.036,9.657,6.8,8.455l3.96-.446,3.722-1.391,3.858-.859,3.828-.976,3.814-1.024,3.694-1.5,3.892-.739L37.348.317l4-.317L45.51,1.07l.345,4.618-2.28,3.306-2.409,3.235-1.784,3.605-1.425,3.824L35.231,22.7,33.207,26.17l-1.375,3.854-2.868,2.965L27.09,36.546l-1.332,3.879-2.715,3.056-2.061,3.446L19.125,50.5l-2.317,3.3-3.484,1.777-3.1-2.624-1.27-3.778-.686-3.932-1.186-3.8L5.658,37.7l-.165-4.069L4.439,29.795l-.91-3.875-1.219-3.8-.8-3.91L0,14.484l.941-2.862Z" transform="translate(156.835 402.575)"/><path class="j" d="M2.021,6.427l2.507-.8,2.636-.3L9.64,4.4l2.567-.572,2.548-.649L17.293,2.5l2.459-1,2.59-.492,2.512-.8L27.517,0l2.769.712.229,3.073L29,5.986,27.4,8.138l-1.187,2.4-.948,2.545-1.814,2.026L22.1,17.415l-.915,2.565-1.908,1.973-1.247,2.367L17.142,26.9l-1.807,2.034-1.372,2.293-1.236,2.379-1.542,2.2L8.867,36.988,6.806,35.242l-.845-2.515L5.5,30.111l-.789-2.532-.95-2.49-.11-2.708-.7-2.553-.605-2.579-.811-2.528-.532-2.6L0,9.639l.626-1.9Z" transform="translate(193.214 444.57) rotate(30)"/><path class="k" d="M6.1,19.4l7.566-2.415,7.954-.9,7.475-2.794,7.748-1.725,7.689-1.96L52.191,7.55l7.42-3.008,7.817-1.484L75.01.637,83.045,0,91.4,2.149l.692,9.275-4.578,6.64-4.838,6.5L79.1,31.8l-2.863,7.68L70.759,45.6l-4.065,6.962L63.933,60.3l-5.76,5.954L54.408,73.4l-2.675,7.79L46.28,87.327l-4.139,6.92-3.73,7.181-4.653,6.632-7,3.57-6.221-5.27L17.99,98.77l-1.377-7.9-2.382-7.641-2.868-7.513-.331-8.173L8.915,59.84,7.089,52.057,4.641,44.426,3.034,36.573,0,29.09l1.889-5.748Z" transform="translate(340.96 433.822) rotate(88)"/></g><path class="c" d="M101.435,68.26l-1.563-4.177-4.066-1.876-1.615-4.131L90.461,55.89,88,52.539l-3.186-2.687-2-3.771-2.469-3.347-3.176-2.689-3.054-2.808L70.984,34.5l-1.755-4.006-2.975-2.879L63.1,24.895l-2.709-3.13-3.555-2.351-1.976-3.8L51.4,13.179,49.643,9.173,45.8,7.081,43.657,3.423,41.255,0,37.533,1.417,35.338,5.028l-2.4,3.508L31.38,12.462l-2.045,3.686-1.842,3.786-1.586,3.913-1.807,3.8L22.731,31.67,20.49,35.255l-2.6,3.411-2.1,3.654-1.951,3.733-.648,4.378-1.664,3.876L9.145,57.831,6.867,61.4,5.9,65.623,3.344,69.062,2.223,73.214,0,76.82l2.017,3.772,4.051-1.014,4.047-1.088,4.2.712L18.3,77.48l4.148.108,4.15.126,4.034-1.221L34.9,77.956l4.076-.733L43,75.871l4.1-.438,4.1-.412,4.16.277,4.03-1.289,4.258,1.41,3.979-1.879,4.112-.349L76,74.408l4.013-1.5,4.131-.115,4.056-.992,4.245,1.171,4.122-.291,3.992-1.818Z" transform="translate(1920.97 1809.977) rotate(-14)"/><path class="c" d="M24.054,2.059l.264,1.987L25.25,5.9l.163,2.01.361,1.965.645,1.909.429,1.956.225,2,.4,1.964.547,1.935.468,1.952L28,23.5l-1.643.815-1.585-.467-1.7-1.08-1.9-.786-1.407-1.533L18.037,19.41l-1.759-1L14.4,17.593l-1.559-1.3-1.834-.878L9.4,14.188l-1.8-.936L6.181,11.728,4.508,10.594l-2.042-.576L1.018,8.534,0,7.052.534,5.4,1.821,4.243l1.986-.251,1.919-.578,2.012-.127,1.881-.743,1.893-.7,2.1.3L15.419,1,17.425.837,19.368.349,21.34,0l1.69.727Z" transform="translate(1871.833 2181.937) rotate(-14)"/><path class="c" d="M16.553,1.417l.182,1.368.641,1.273.112,1.383.248,1.352.444,1.313.3,1.346.155,1.375.274,1.352.376,1.332.322,1.343-.332,1.318-1.131.561-1.091-.321-1.171-.743-1.306-.541L13.6,14.073l-1.192-.716L11.2,12.672l-1.29-.566-1.073-.9-1.262-.6L6.469,9.763l-1.24-.644L4.254,8.07,3.1,7.29,1.7,6.894.7,5.873,0,4.853.367,3.719l.886-.8L2.62,2.747l1.321-.4,1.384-.088,1.294-.511,1.3-.48,1.447.209L10.611.692l1.38-.116L13.328.24,14.685,0l1.163.5Z" transform="translate(1888.594 2152.03) rotate(-14)"/><path class="a" d="M3.712,11.808l4.606-1.47,4.842-.545,4.551-1.7,4.717-1.05,4.681-1.193L31.773,4.6,36.29,2.765l4.759-.9L45.665.388,50.557,0l5.087,1.308.421,5.647L53.279,11l-2.946,3.955-2.181,4.408-1.743,4.675-3.332,3.723L40.6,32,38.921,36.71l-3.506,3.625-2.292,4.349-1.629,4.742-3.319,3.737-2.52,4.213-2.271,4.372-2.833,4.037-4.259,2.173L12.5,64.75l-1.553-4.62-.839-4.807-1.45-4.652L6.918,46.1l-.2-4.976L5.428,36.43,4.315,31.692l-1.49-4.645-.978-4.781L0,17.709l1.15-3.5Z" transform="matrix(0.978, 0.208, -0.208, 0.978, 2020.904, 1881.5)"/><path class="c" d="M16.553,1.417l.182,1.368.641,1.273.112,1.383.248,1.352.444,1.313.3,1.346.155,1.375.274,1.352.376,1.332.322,1.343-.332,1.318-1.131.561-1.091-.321-1.171-.743-1.306-.541L13.6,14.073l-1.192-.716L11.2,12.672l-1.29-.566-1.073-.9-1.262-.6L6.469,9.763l-1.24-.644L4.254,8.07,3.1,7.29,1.7,6.894.7,5.873,0,4.853.367,3.719l.886-.8L2.62,2.747l1.321-.4,1.384-.088,1.294-.511,1.3-.48,1.447.209L10.611.692l1.38-.116L13.328.24,14.685,0l1.163.5Z" transform="translate(2033.111 2119.518) rotate(-14)"/><g class="d" transform="translate(1366.968 1782.375) rotate(-14)"><path class="j" d="M70.008,2.236,73.476,9.4l4.661,6.3,4.713,6.259,5.469,5.711L92.2,34.523l4.052,6.74,5.075,5.993,5.072,6,4.4,6.485,4.332,6.535,5.405,5.76,2.489,7.877,6.668,4.846L133.064,92l4.787,6.215,1.8,6.667-5.635,4.552-7.814,1.922-8.188.087-8.056.747-7.825,1.887L94.6,117.451l-7.785,2.091L78.9,120.978l-8.316-.544-7.9,1.539-7.554,3.22-7.766,2.178-8.086.6-7.912,1.479-7.921,1.422-7.728,2.407-8.051.8-5.53-2.821L0,124.807l3.52-7.083L7.5,110.866l3-7.331,2.813-7.424,4.9-6.417,3.835-6.931,2.43-7.61,4.115-6.8,1.876-7.876,3.254-7.211,5.145-6.3,2.218-7.71,3.183-7.248,2.742-7.464,4.767-6.484L55.46,11.05l3.867-6.924L63.6,0Z" transform="translate(482.162 334.939)"/><path class="j" d="M3.426.094,5.842,1.6,8.417,2.816l2.665,1.039,2.389,1.558,2.592,1.178,2.5,1.355L21.149,9.14l2.3,1.74,2.682,1.02.961,1.821-.7,1.857-2.162,1.8-2.439,1.449L19.92,21,17.658,22.67l-2.161,1.8-2.241,1.7L10.8,27.6,8.836,29.668,6.473,31.226,4.289,33.013l-2.378.335L.839,31.287.67,28.632.488,25.978l.234-2.661-.24-2.655L.629,18,.485,15.347l.276-2.664L.617,10.027.258,7.373.563,4.7,0,2.049,1.182,0Z" transform="translate(435.73 409.973)"/><path class="j" d="M24.054,2.059l.264,1.987L25.25,5.9l.163,2.01.361,1.965.645,1.909.429,1.956.225,2,.4,1.964.547,1.935.468,1.952L28,23.5l-1.643.815-1.585-.467-1.7-1.08-1.9-.786-1.407-1.533L18.037,19.41l-1.759-1L14.4,17.593l-1.559-1.3-1.834-.878L9.4,14.188l-1.8-.936L6.181,11.728,4.508,10.594l-2.042-.576L1.018,8.534,0,7.052.534,5.4,1.821,4.243l1.986-.251,1.919-.578,2.012-.127,1.881-.743,1.893-.7,2.1.3L15.419,1,17.425.837,19.368.349,21.34,0l1.69.727Z" transform="translate(544.69 273.8)"/><path class="j" d="M2.222,10.053,6.776,8.842l4.333-1.79,4.25-2,4.375-1.689,4.5-1.391L28.508,0,32.6,1.14l.752,4.022L31.383,9.72l-1.376,4.815-2.7,4.229-1.876,4.6-1.638,4.7-1.767,4.646-2.318,4.414-2.059,4.527-3.76,2.816L10.6,41.36,8.423,37.195,7.178,32.659l-2.054-4.22L3.071,24.216l-1.082-4.61L0,15.35Z" transform="translate(268.448 264.073)"/><path class="j" d="M3.036,9.657,6.8,8.455l3.96-.446,3.722-1.391,3.858-.859,3.828-.976,3.814-1.024,3.694-1.5,3.892-.739L37.348.317l4-.317L45.51,1.07l.345,4.618-2.28,3.306-2.409,3.235-1.784,3.605-1.425,3.824L35.231,22.7,33.207,26.17l-1.375,3.854-2.868,2.965L27.09,36.546l-1.332,3.879-2.715,3.056-2.061,3.446L19.125,50.5l-2.317,3.3-3.484,1.777-3.1-2.624-1.27-3.778-.686-3.932-1.186-3.8L5.658,37.7l-.165-4.069L4.439,29.795l-.91-3.875-1.219-3.8-.8-3.91L0,14.484l.941-2.862Z" transform="translate(459.051 292.558)"/><path class="j" d="M101.435,68.26l-1.563-4.177-4.066-1.876-1.615-4.131L90.461,55.89,88,52.539l-3.186-2.687-2-3.771-2.469-3.347-3.176-2.689-3.054-2.808L70.984,34.5l-1.755-4.006-2.975-2.879L63.1,24.895l-2.709-3.13-3.555-2.351-1.976-3.8L51.4,13.179,49.643,9.173,45.8,7.081,43.657,3.423,41.255,0,37.533,1.417,35.338,5.028l-2.4,3.508L31.38,12.462l-2.045,3.686-1.842,3.786-1.586,3.913-1.807,3.8L22.731,31.67,20.49,35.255l-2.6,3.411-2.1,3.654-1.951,3.733-.648,4.378-1.664,3.876L9.145,57.831,6.867,61.4,5.9,65.623,3.344,69.062,2.223,73.214,0,76.82l2.017,3.772,4.051-1.014,4.047-1.088,4.2.712L18.3,77.48l4.148.108,4.15.126,4.034-1.221L34.9,77.956l4.076-.733L43,75.871l4.1-.438,4.1-.412,4.16.277,4.03-1.289,4.258,1.41,3.979-1.879,4.112-.349L76,74.408l4.013-1.5,4.131-.115,4.056-.992,4.245,1.171,4.122-.291,3.992-1.818Z" transform="translate(322.639 266.852)"/><path class="j" d="M42.054,5.422l-.8,1.644-.488,1.77-.582,1.732-.921,1.6-.631,1.713-.522,1.759-.893,1.607-.419,1.8-.981,1.572L35.5,22.461l-.751,1.666-1.059,1.538-.525,1.757-.639,1.714-.695,1.691-1.1,1.528-.127,1.926-1.258,1.465-1.036,1.34-1.5.983-1.945.141-1.2-1.515-1.4-1.129-1.532-1.013-.688-1.762-1.541-1L17.461,30.34l-1.415-1.118-.932-1.548-1.55-1-1.112-1.389-.837-1.628-1.278-1.235-1.51-1.037L7.654,20.054,6.639,18.577,5.5,17.2,4.213,15.973l-1.327-1.2-.772-1.7L.594,12.032.149,10.485,0,9.01.167,7.4,1.6,6.606,2.886,5.531l1.738-.423,1.839.208,1.793-.083L9.97,4.651l1.721-.539,1.8-.043,1.732-.481,1.82.083,1.717-.579,1.8-.054,1.775-.209,1.8-.066,1.793-.1,1.682-.793,1.82.079,1.743-.433,1.782-.174,1.76-.329L36.5.816,38.184,0l1.9.935,1.807.779.491,1.9Z" transform="translate(332.679 381.488)"/><path class="j" d="M3.036,9.657,6.8,8.455l3.96-.446,3.722-1.391,3.858-.859,3.828-.976,3.814-1.024,3.694-1.5,3.892-.739L37.348.317l4-.317L45.51,1.07l.345,4.618-2.28,3.306-2.409,3.235-1.784,3.605-1.425,3.824L35.231,22.7,33.207,26.17l-1.375,3.854-2.868,2.965L27.09,36.546l-1.332,3.879-2.715,3.056-2.061,3.446L19.125,50.5l-2.317,3.3-3.484,1.777-3.1-2.624-1.27-3.778-.686-3.932-1.186-3.8L5.658,37.7l-.165-4.069L4.439,29.795l-.91-3.875-1.219-3.8-.8-3.91L0,14.484l.941-2.862Z" transform="translate(679.038 0)"/><path class="j" d="M3.426.094,5.842,1.6,8.417,2.816l2.665,1.039,2.389,1.558,2.592,1.178,2.5,1.355L21.149,9.14l2.3,1.74,2.682,1.02.961,1.821-.7,1.857-2.162,1.8-2.439,1.449L19.92,21,17.658,22.67l-2.161,1.8-2.241,1.7L10.8,27.6,8.836,29.668,6.473,31.226,4.289,33.013l-2.378.335L.839,31.287.67,28.632.488,25.978l.234-2.661-.24-2.655L.629,18,.485,15.347l.276-2.664L.617,10.027.258,7.373.563,4.7,0,2.049,1.182,0Z" transform="translate(639.897 205.719)"/><path class="j" d="M3.426.094,5.842,1.6,8.417,2.816l2.665,1.039,2.389,1.558,2.592,1.178,2.5,1.355L21.149,9.14l2.3,1.74,2.682,1.02.961,1.821-.7,1.857-2.162,1.8-2.439,1.449L19.92,21,17.658,22.67l-2.161,1.8-2.241,1.7L10.8,27.6,8.836,29.668,6.473,31.226,4.289,33.013l-2.378.335L.839,31.287.67,28.632.488,25.978l.234-2.661-.24-2.655L.629,18,.485,15.347l.276-2.664L.617,10.027.258,7.373.563,4.7,0,2.049,1.182,0Z" transform="translate(545.285 528.256)"/><path class="j" d="M3.426.094,5.842,1.6,8.417,2.816l2.665,1.039,2.389,1.558,2.592,1.178,2.5,1.355L21.149,9.14l2.3,1.74,2.682,1.02.961,1.821-.7,1.857-2.162,1.8-2.439,1.449L19.92,21,17.658,22.67l-2.161,1.8-2.241,1.7L10.8,27.6,8.836,29.668,6.473,31.226,4.289,33.013l-2.378.335L.839,31.287.67,28.632.488,25.978l.234-2.661-.24-2.655L.629,18,.485,15.347l.276-2.664L.617,10.027.258,7.373.563,4.7,0,2.049,1.182,0Z" transform="translate(494.726 149.472)"/><path class="j" d="M79.489,53.492l-1.225-3.274-3.187-1.47-1.266-3.238L70.89,43.8l-1.931-2.625-2.5-2.106-1.568-2.955-1.935-2.623L60.47,31.381l-2.393-2.2-2.451-2.145L54.251,23.9,51.919,21.64l-2.47-2.131-2.123-2.453-2.786-1.842-1.549-2.976-2.712-1.91L38.9,7.188,35.894,5.549,34.212,2.683,32.329,0,29.412,1.111,27.693,3.94,25.81,6.689,24.59,9.766l-1.6,2.888-1.444,2.967L20.3,18.687l-1.416,2.982-1.073,3.149-1.756,2.809L14.018,30.3l-1.649,2.864L10.84,36.089l-.507,3.431-1.3,3.037L7.166,45.319l-1.785,2.8-.757,3.307-2,2.695-.879,3.253L0,60.2l1.581,2.956,3.174-.795,3.171-.852,3.29.558,3.128-1.35,3.251.084,3.252.1,3.162-.957,3.343,1.147,3.194-.575L33.7,59.456l3.216-.343,3.217-.323,3.26.217L46.549,58,49.886,59.1,53,57.629l3.222-.274,3.327.954L62.7,57.136l3.237-.09,3.179-.778,3.327.918,3.23-.228L78.8,55.534Z" transform="matrix(0.616, 0.788, -0.788, 0.616, 49.767, 347.09)"/><path class="j" d="M2.222,10.053,6.776,8.842l4.333-1.79,4.25-2,4.375-1.689,4.5-1.391L28.508,0,32.6,1.14l.752,4.022L31.383,9.72l-1.376,4.815-2.7,4.229-1.876,4.6-1.638,4.7-1.767,4.646-2.318,4.414-2.059,4.527-3.76,2.816L10.6,41.36,8.423,37.195,7.178,32.659l-2.054-4.22L3.071,24.216l-1.082-4.61L0,15.35Z" transform="translate(87.19 366.807)"/><path class="j" d="M3.036,9.657,6.8,8.455l3.96-.446,3.722-1.391,3.858-.859,3.828-.976,3.814-1.024,3.694-1.5,3.892-.739L37.348.317l4-.317L45.51,1.07l.345,4.618-2.28,3.306-2.409,3.235-1.784,3.605-1.425,3.824L35.231,22.7,33.207,26.17l-1.375,3.854-2.868,2.965L27.09,36.546l-1.332,3.879-2.715,3.056-2.061,3.446L19.125,50.5l-2.317,3.3-3.484,1.777-3.1-2.624-1.27-3.778-.686-3.932-1.186-3.8L5.658,37.7l-.165-4.069L4.439,29.795l-.91-3.875-1.219-3.8-.8-3.91L0,14.484l.941-2.862Z" transform="matrix(0.309, 0.951, -0.951, 0.309, 124.465, 412.141)"/><path class="j" d="M3.036,9.657,6.8,8.455l3.96-.446,3.722-1.391,3.858-.859,3.828-.976,3.814-1.024,3.694-1.5,3.892-.739L37.348.317l4-.317L45.51,1.07l.345,4.618-2.28,3.306-2.409,3.235-1.784,3.605-1.425,3.824L35.231,22.7,33.207,26.17l-1.375,3.854-2.868,2.965L27.09,36.546l-1.332,3.879-2.715,3.056-2.061,3.446L19.125,50.5l-2.317,3.3-3.484,1.777-3.1-2.624-1.27-3.778-.686-3.932-1.186-3.8L5.658,37.7l-.165-4.069L4.439,29.795l-.91-3.875-1.219-3.8-.8-3.91L0,14.484l.941-2.862Z" transform="translate(156.835 402.575)"/><path class="j" d="M2.021,6.427l2.507-.8,2.636-.3L9.64,4.4l2.567-.572,2.548-.649L17.293,2.5l2.459-1,2.59-.492,2.512-.8L27.517,0l2.769.712.229,3.073L29,5.986,27.4,8.138l-1.187,2.4-.948,2.545-1.814,2.026L22.1,17.415l-.915,2.565-1.908,1.973-1.247,2.367L17.142,26.9l-1.807,2.034-1.372,2.293-1.236,2.379-1.542,2.2L8.867,36.988,6.806,35.242l-.845-2.515L5.5,30.111l-.789-2.532-.95-2.49-.11-2.708-.7-2.553-.605-2.579-.811-2.528-.532-2.6L0,9.639l.626-1.9Z" transform="translate(193.214 444.57) rotate(30)"/><path class="k" d="M6.1,19.4l7.566-2.415,7.954-.9,7.475-2.794,7.748-1.725,7.689-1.96L52.191,7.55l7.42-3.008,7.817-1.484L75.01.637,83.045,0,91.4,2.149l.692,9.275-4.578,6.64-4.838,6.5L79.1,31.8l-2.863,7.68L70.759,45.6l-4.065,6.962L63.933,60.3l-5.76,5.954L54.408,73.4l-2.675,7.79L46.28,87.327l-4.139,6.92-3.73,7.181-4.653,6.632-7,3.57-6.221-5.27L17.99,98.77l-1.377-7.9-2.382-7.641-2.868-7.513-.331-8.173L8.915,59.84,7.089,52.057,4.641,44.426,3.034,36.573,0,29.09l1.889-5.748Z" transform="translate(340.96 433.822) rotate(88)"/></g></g></svg>