<svg xmlns="http://www.w3.org/2000/svg" width="41.284" height="63.252" viewBox="0 0 41.284 63.252"><defs><style>.a{fill:#2fe9ee;}</style></defs><g transform="translate(-146.344 -87.992)"><g transform="translate(146.344 87.992)"><path class="a" d="M207.711,303.914l-11.235-11.877,4.1-3.881,7.121,7.528,7.077-7.522,4.113,3.869Zm0,0" transform="translate(-187.039 -250.477)"/><path class="a" d="M166.986,151.244A20.665,20.665,0,0,1,146.344,130.6V108.634a20.642,20.642,0,0,1,41.284,0V130.6A20.665,20.665,0,0,1,166.986,151.244Zm0-57.6a15.011,15.011,0,0,0-14.995,14.995V130.6a14.995,14.995,0,1,0,29.989,0V108.634A15.012,15.012,0,0,0,166.986,93.639Zm0,0" transform="translate(-146.344 -87.992)"/><path class="a" d="M247.914,144.98a2.441,2.441,0,1,1-2.441-2.441A2.441,2.441,0,0,1,247.914,144.98Zm0,0" transform="translate(-224.831 -132.271)"/><path class="a" d="M247.914,144.98a2.441,2.441,0,1,1-2.441-2.441A2.441,2.441,0,0,1,247.914,144.98Zm0,0" transform="translate(-224.831 -132.271)"/><path class="a" d="M247.914,196.847a2.441,2.441,0,1,1-2.441-2.441A2.441,2.441,0,0,1,247.914,196.847Zm0,0" transform="translate(-224.831 -174.375)"/><path class="a" d="M247.914,196.847a2.441,2.441,0,1,1-2.441-2.441A2.441,2.441,0,0,1,247.914,196.847Zm0,0" transform="translate(-224.831 -174.375)"/><path class="a" d="M247.914,248.715a2.441,2.441,0,1,1-2.441-2.441A2.441,2.441,0,0,1,247.914,248.715Zm0,0" transform="translate(-224.831 -216.478)"/><path class="a" d="M247.914,248.715a2.441,2.441,0,1,1-2.441-2.441A2.441,2.441,0,0,1,247.914,248.715Zm0,0" transform="translate(-224.831 -216.478)"/></g></g></svg>