<svg xmlns="http://www.w3.org/2000/svg" width="191.968" height="143.883" viewBox="0 0 191.968 143.883"><defs><style>.a{fill:#fbff14;fill-rule:evenodd;}</style></defs><g transform="translate(0 -1)"><g transform="translate(0 1)"><g transform="translate(0 0)"><g transform="translate(45.302 95.145)"><path class="a" d="M21.251,14.449a7.438,7.438,0,1,1,9.5-4.517,7.438,7.438,0,0,1-9.5,4.517" transform="translate(3.929)"/><path class="a" d="M35.723,19.594a7.438,7.438,0,1,1,9.5-4.517,7.438,7.438,0,0,1-9.5,4.517" transform="translate(8.312 1.558)"/><g transform="translate(0 14.009)"><path class="a" d="M63.333,26.27,55.816,14.924A24.879,24.879,0,0,1,42.7,21.27,25.012,25.012,0,0,1,14.119.428C14.114.4,14.111.37,14.107.343L.773,2.431c.005.029.009.057.013.086A38.513,38.513,0,0,0,44.793,34.6a38.326,38.326,0,0,0,18.54-8.333" transform="translate(-0.773 -0.343)"/></g></g><g transform="translate(0 0)"><path class="a" d="M37.307,48.793a32.906,32.906,0,0,0-5.177-.382,28.442,28.442,0,0,0-5.246.275,23.9,23.9,0,0,0-4.935,1.833c-1.553.77-3.611,1.008-4.994,2.174-1.484,1.253-1.592,3.872-2.731,5.594-1.085,1.642-3,2.886-3.674,4.81-.654,1.879-.008,4.03-.173,6.045-.164,1.984-1.544,4.079-1.148,6.07.2.977,1.76,1.434,2.284,2.225,1.236,1.863,2.742,1.738,4.643,1.338,1.656-.35,3.759.34,5.218-.6,1.391-.9,2.5-2.4,3.792-3.562,1.26-1.136,2.4-2.43,3.641-3.567,1.163-1.074,2.012-2.516,3.228-3.507s2.427-2.079,3.705-2.989,3.245-.817,4.581-1.636a22.306,22.306,0,0,1,4.991-2.861c2.144-.693,4.02-1.437,4.97-2.495,1.7-1.9,2.008-3.079,1.291-4.34a7.67,7.67,0,0,0-3.985-3.1,31.457,31.457,0,0,0-5.041-1.4c-2.1-.425-4.116.192-5.241.079" transform="translate(2.773 13.35)"/><g transform="translate(126.383 33.212)"><path class="a" d="M49.618,2.27C46.124.258,41.994.138,37.534,1.092c-3.065.654-5.964,1.286-8.4,3.335-2.414,2.034-5.2,4.01-6.868,6.552s-2.234,5.769-3.708,8.412-4.271,4.294-6.171,6.725c-2.376,3.036-4.746,6.347-7.349,9.3a20.48,20.48,0,0,0-4.6,10.71,20,20,0,0,0,.185,9.043C1.913,59.474,3.8,63.7,7.448,66.451c4.088,3.082,9.949,2.565,15.714,2.056,3.359-.3,6.851.112,10.215-.719a55.432,55.432,0,0,0,9.483-3.825c3.118-1.416,6.55-2.344,9.276-4.443a33.16,33.16,0,0,0,7.847-7.934A35.268,35.268,0,0,0,64.224,41.23a40.042,40.042,0,0,0,1.344-11.109c-.163-3.705-2.68-7.012-3.817-10.439-1.183-3.566-.942-7.926-3.06-10.8-2.229-3.024-5.945-4.809-9.073-6.612" transform="translate(-0.009 -0.515)"/></g><path class="a" d="M.084,22.933a7.568,7.568,0,0,0,1.4,5.33,10.656,10.656,0,0,0,6.651,4.626c2.7.646,5.306,1.187,7.978,2.065,1.666.546,3.516.915,5.181,1.571,1.8.709,3.637,1.963,5.339,1.636,1.434-.274,2.612-1.533,3.718-2.355a9.411,9.411,0,0,0,3.45-4.832,10.233,10.233,0,0,0-.747-7.215,29.527,29.527,0,0,0-3.9-5.823,20.977,20.977,0,0,0-5.323-4.375,14.187,14.187,0,0,0-6.811-2.652A16.673,16.673,0,0,0,9.8,12.446a17.938,17.938,0,0,0-6.4,3.816,13.126,13.126,0,0,0-3.316,6.67" transform="translate(0 1.995)"/><g transform="translate(71.787)"><path class="a" d="M35.4,5.687a23.554,23.554,0,0,0-5.943-4.338A16.307,16.307,0,0,0,18.2.756a35.936,35.936,0,0,0-9.913,5.73,22.347,22.347,0,0,0-5.06,4.727C1.8,13.266.276,15.884.112,18.379c-.162,2.454,1.9,4.908,2.667,7.242.779,2.361.417,5.353,1.724,7.47s4.018,3.323,5.482,5.314c1.245,1.692,1.7,3.787,2.4,5.773.776,2.221,1.777,4.333,2.331,6.621a14.647,14.647,0,0,0,7.4,9.824,15.242,15.242,0,0,0,12.541.7c4.089-1.722,7.49-5.1,10.034-8.737,1.717-2.456,3.772-5.046,4.978-7.894s.108-6.309.461-9.328,1.954-6.164,1.107-9.169A33.2,33.2,0,0,0,47.8,18c-1.509-2.466-4.222-4.126-6.2-6.266a81.017,81.017,0,0,0-6.2-6.05" transform="translate(-0.103 -0.022)"/></g></g></g></g></g></svg>