<svg xmlns="http://www.w3.org/2000/svg" width="174.967" height="167.289" viewBox="0 0 174.967 167.289"><defs><style>.a{fill:#ff8000;fill-rule:evenodd;}</style></defs><g transform="translate(-1.271 26)"><g transform="translate(0 1)"><g transform="translate(0 0)"><g transform="translate(1.271 5.733)"><g transform="translate(31.187 0)"><path class="a" d="M20.6,4.61A11.527,11.527,0,0,0,.927,8.324l-.192.561,4.722,2.2.209-.747A6.4,6.4,0,0,1,16.711,7.947l.426.506,3.4-2.9.485-.445Z" transform="translate(-0.735 -0.559)"/></g><path class="a" d="M15.95,16.709a7.609,7.609,0,1,1,5.877-9.016,7.61,7.61,0,0,1-5.877,9.016" transform="translate(5.134 0.272)"/><path class="a" d="M67.311,14.04,54.692,8.158A25.474,25.474,0,0,1,46.643,20.7a25.59,25.59,0,0,1-36.073-2.912c-.018-.023-.037-.046-.056-.069L0,26.665c.018.021.037.044.056.069a39.394,39.394,0,0,0,55.531,4.481A39.206,39.206,0,0,0,67.311,14.04" transform="translate(0 5.206)"/></g><g transform="translate(68.583 0)"><path class="a" d="M78.669,79.233c-1.47,0-2.529-.654-2.529-1.978a2.8,2.8,0,0,1,2.529-2.828c1.468,0,2.242,1.5,2.242,2.828s-.774,1.978-2.242,1.978M96.3,72.366a7.193,7.193,0,0,0-2.736-5.144c-1.384-1.187-3.341-1.386-5.4-1.386-.4,0-.406-.561-.79-.508-.332-1.688-1.78-2.917-3.2-3.95A8.219,8.219,0,0,0,79.4,59.6a8.5,8.5,0,0,0-5.045,1.671,7.054,7.054,0,0,0-2.342,4.72,10.883,10.883,0,0,0-2.831-.974c-2.061,0-3.682,1.407-5.066,2.594a6.48,6.48,0,0,0-.86,9.642c-1.379,1.257-1.412,2.982-1.412,4.889A6.316,6.316,0,0,0,63.857,87.2a8.254,8.254,0,0,0,5.323,2.012,8.058,8.058,0,0,0,1.148-.186,6.657,6.657,0,0,0,2.954,3.953C74.6,93.933,76.111,95,77.94,95c1.887,0,3.371-1.194,4.709-2.21A6.5,6.5,0,0,0,85.3,88.5a10.427,10.427,0,0,0,2.861.345,7.939,7.939,0,0,0,5.295-1.676,6.713,6.713,0,0,0,2.525-5.021,6.964,6.964,0,0,0-2.564-4.889C94.792,76,96.3,74.272,96.3,72.366" transform="translate(2.984 -35.909)"/><g transform="translate(81.887 104.795)"><path class="a" d="M10.833,10.274c-1.034.121-1.665-.005-1.588-.637a2.277,2.277,0,0,1,1.832-1.706c1.052-.162,1.644.5,1.581,1.155s-.758,1.06-1.825,1.187M26.245,4.533c0-1.273-1.468-2.21-3.241-2.515a11.836,11.836,0,0,0-4.115.536c-.334.072-.5-.294-.814-.2-.248-.849-1.4-1.15-2.675-1.307a8.15,8.15,0,0,0-3.065.072A10.485,10.485,0,0,0,9.256,2.458,5.061,5.061,0,0,0,7.283,5.113c-.464-.005-1.176-.355-1.7-.241a7.729,7.729,0,0,0-2.61,1.7C2,7.269,1.207,7.934,1.052,8.782c-.141.776-.158,1.365.468,1.79a3.211,3.211,0,0,0-.985,2.319,1.938,1.938,0,0,0,.87,2.244,4.716,4.716,0,0,0,2.634.628,7.052,7.052,0,0,0,.7-.142c.1.916.856,1.532,1.906,2.049a6.281,6.281,0,0,0,2.826.964,8.542,8.542,0,0,0,3.635-1.266,4.523,4.523,0,0,0,2.587-2.622,12.415,12.415,0,0,0,2.43.118,12.847,12.847,0,0,0,3.244-.413,9.805,9.805,0,0,0,2.982-1.393A3.442,3.442,0,0,0,25.8,10.28a2.86,2.86,0,0,0-2.156-2.62c1.414-.92,2.6-2.042,2.6-3.127" transform="translate(-0.477 -0.938)"/></g><path class="a" d="M62.046,82.572C63.8,81.145,64.721,79.523,63.8,78.4c0,0-1.155-.153-1.157-.155s1.1,1.043,1.1,1.043-.406-.517-.406-.515c.916,1.124,3.169-.113,4.926-1.54s2.534-2.659,1.621-3.783l-.141-.892c1.122-.916,1.377-2.481-.051-4.236s-3.508-3.542-4.63-2.629c1.122-.913.364-1.551-1.066-3.306S61.021,58.792,59.9,59.7c1.124-.913.172-1.769-1.257-3.526s-2.793-2.745-3.916-1.832c1.124-.913,1.9-4.177.471-5.933s-4.521-1.491-5.643-.579c1.122-.913,1.3-3.542-.128-5.3s-3.922-2.7-5.047-1.788c1.125-.914-.209-1.584-1.637-3.341s-2.52-3.459-3.644-2.548c0,0-.686.784-.686.784-.916-1.122-1.848-.992-3.6.438s-2.873,3.688-1.959,4.811a3.624,3.624,0,0,0-4.956-.32c-1.757,1.43-2.319,3.375-1.407,4.5-.913-1.124-2.538.058-4.294,1.488S19.21,48,20.123,49.125c-.913-1.124-3.03.572-4.787,2S12.848,55.47,13.762,56.6c-.914-1.125-2.75-1.379-4.507.049S6.486,59.988,7.4,61.111c-.916-1.124-2.951-.969-4.708.461S.638,64.493,1.553,65.615L.478,65.348C-.64,66.262.369,68.946,1.8,70.7s3.294,2.879,4.417,1.964a4.15,4.15,0,0,0-.424,5.355c1.428,1.757,4.474.58,5.6-.332C10.265,78.6,10,82.245,11.432,84s4.006,1.025,5.13.111c-1.124.914-.638,3.886.791,5.643s3.259,2.946,4.38,2.031c-1.122.914.113,1.964,1.54,3.719s2.509,4.264,3.635,3.352c-1.125.913-1.461,2.534-.033,4.289s4.963,3.056,6.088,2.145l-.561-1.356c.913,1.124,2.606.958,4.363-.47s1.711-2.6.8-3.726c0,0,.016-.777.014-.777s.974-.777.974-.777-.575,1.213-.573,1.215c.914,1.125,3.554.519,5.311-.909s3.033-4.008,2.119-5.13c0,0-.9.47-.9.468s.371-.621.373-.621.946-.2.948-.2c.914,1.124,2.592,2.388,4.349.958s2.167-4.389,1.254-5.513c0,0-1.131.158-1.131.158s.988-.927.988-.925.413.543.415.545c.914,1.122,3.192,2.13,4.949.7s1.975-4.463,1.06-5.589c0,0,.109.178.107.176s-.373.478-.371.478,1.115-1.349,1.117-1.347c.914,1.124,1.72,1.344,3.477-.084" transform="translate(-13.153 34.697)"/><g transform="translate(9.037 -27)"><path class="a" d="M26.6,9.178c.076-1.046-.223-1.882-.893-1.931,0,0-.339.278-.341.278l.57-.035-.246-.021c.67.049,1.027-1.039,1.1-2.086s-.153-1.744-.821-1.794l-.281-.19c.047-.668-.468-1.256-1.514-1.331s-1.934-.007-1.982.663c.047-.67-.779-.608-1.825-.684S18.45,1.929,18.4,2.6c.047-.67-.784-.656-1.832-.732s-1.91.167-1.957.834A2.125,2.125,0,0,0,12.842.76a2.061,2.061,0,0,0-2.019,1.614A1.839,1.839,0,0,0,9.031.776c-1.046-.074-1.95.382-2,1.052.047-.67-.8-.519-1.845-.594s-1.961-.123-2.01.545c0,0,.039.392.037.392-.668-.051-.987.392-1.062,1.438S2.3,5.8,2.971,5.844C2.3,5.8,1.628,6.329,1.552,7.375S2.029,9.213,2.7,9.261c-.67-.047-.953.886-1.029,1.933s.086,1.389.756,1.437c-.67-.047-1.245,1.284-1.321,2.33s.378,2.274,1.048,2.321c-.67-.047-1.078.434-1.154,1.481s.211,2.015.879,2.063c-.668-.047-1.194.672-1.27,1.72s.346,1.679,1.016,1.727l-.35.225c-.047.668,1.1,1.2,2.145,1.273S5.349,25.562,5.4,24.9A1.916,1.916,0,0,0,7.171,26.61c1.046.076,1.968-1.277,2.017-1.947a2.19,2.19,0,0,0,1.788,1.994,2.109,2.109,0,0,0,2-1.7c-.047.668.768,1.533,1.817,1.609s1.926-.174,1.973-.844c-.047.67.795.679,1.843.754s1.9.455,1.947-.215c-.047.67.74,1.173,1.787,1.249s2.48-.651,2.531-1.319l-.515-.2c.668.049,1.173-.608,1.249-1.657s-.35-1.5-1.02-1.551c0,0-.208-.2-.209-.2l.039-.468s.185.471.186.471c.668.047,1.3-.985,1.373-2.029s-.394-2.228-1.064-2.276c0,0-.1.366-.1.366l-.074-.264s.192-.308.193-.308a1.4,1.4,0,0,0,1.635-1.287,2.05,2.05,0,0,0-1.391-2.137l-.246.35s0-.508,0-.508l.257.026A1.661,1.661,0,0,0,26.9,13.01a2.053,2.053,0,0,0-1.46-2.1l.076.016s.033.225.035.225-.083-.652-.081-.652c.67.047,1.052-.269,1.127-1.315" transform="translate(-0.601 -0.756)"/></g></g></g></g></g></svg>