<svg xmlns="http://www.w3.org/2000/svg" width="475.611" height="77.749" viewBox="0 0 475.611 77.749"><defs><style>.a{fill:#fd7f23;}</style></defs><path class="a" d="M80.919,29.873a4.3,4.3,0,0,0-3.712-2.965L53.79,24.781,44.531,3.109a4.312,4.312,0,0,0-7.93,0L27.341,24.781,3.921,26.908a4.317,4.317,0,0,0-2.447,7.545l17.7,15.523L13.954,72.967a4.305,4.305,0,0,0,6.413,4.659l20.2-12.072L60.757,77.626a4.311,4.311,0,0,0,6.416-4.659L61.954,49.976l17.7-15.52A4.314,4.314,0,0,0,80.919,29.873Zm0,0" transform="translate(0 -0.492)"/><path class="a" d="M80.919,29.873a4.3,4.3,0,0,0-3.712-2.965L53.79,24.781,44.531,3.109a4.312,4.312,0,0,0-7.93,0L27.341,24.781,3.921,26.908a4.317,4.317,0,0,0-2.447,7.545l17.7,15.523L13.954,72.967a4.305,4.305,0,0,0,6.413,4.659l20.2-12.072L60.757,77.626a4.311,4.311,0,0,0,6.416-4.659L61.954,49.976l17.7-15.52A4.314,4.314,0,0,0,80.919,29.873Zm0,0" transform="translate(99.001 -0.492)"/><path class="a" d="M80.919,29.873a4.3,4.3,0,0,0-3.712-2.965L53.79,24.781,44.531,3.109a4.312,4.312,0,0,0-7.93,0L27.341,24.781,3.921,26.908a4.317,4.317,0,0,0-2.447,7.545l17.7,15.523L13.954,72.967a4.305,4.305,0,0,0,6.413,4.659l20.2-12.072L60.757,77.626a4.311,4.311,0,0,0,6.416-4.659L61.954,49.976l17.7-15.52A4.314,4.314,0,0,0,80.919,29.873Zm0,0" transform="translate(295.48 -0.492)"/><path class="a" d="M80.919,29.873a4.3,4.3,0,0,0-3.712-2.965L53.79,24.781,44.531,3.109a4.312,4.312,0,0,0-7.93,0L27.341,24.781,3.921,26.908a4.317,4.317,0,0,0-2.447,7.545l17.7,15.523L13.954,72.967a4.305,4.305,0,0,0,6.413,4.659l20.2-12.072L60.757,77.626a4.311,4.311,0,0,0,6.416-4.659L61.954,49.976l17.7-15.52A4.314,4.314,0,0,0,80.919,29.873Zm0,0" transform="translate(196.479 -0.492)"/><path class="a" d="M80.919,29.873a4.3,4.3,0,0,0-3.712-2.965L53.79,24.781,44.531,3.109a4.312,4.312,0,0,0-7.93,0L27.341,24.781,3.921,26.908a4.317,4.317,0,0,0-2.447,7.545l17.7,15.523L13.954,72.967a4.305,4.305,0,0,0,6.413,4.659l20.2-12.072L60.757,77.626a4.311,4.311,0,0,0,6.416-4.659L61.954,49.976l17.7-15.52A4.314,4.314,0,0,0,80.919,29.873Zm0,0" transform="translate(394.481 -0.492)"/></svg>